<?xml version="1.0" encoding="utf-8"?>
<!-- Generator: Adobe Illustrator 23.0.1, SVG Export Plug-In . SVG Version: 6.00 Build 0)  -->
<svg version="1.2" baseProfile="tiny" id="Layer_1" xmlns="http://www.w3.org/2000/svg" xmlns:xlink="http://www.w3.org/1999/xlink"
	 x="0px" y="0px" viewBox="0 0 560 288" xml:space="preserve">
<g>
	<path fill="none" d="M130.5,1C229.7,1,329,1,428.3,1c0,95.1,0,190.3,0,285.4c-99.3,0-198.5,0-297.8,0
		C130.5,191.2,130.5,96.1,130.5,1z M394.2,221c2-1.7,4.5-3,5.8-5c4-6.6,7.9-13.4,11.1-20.5c12.9-30.1,15.2-60.9,5.3-92.5
		c-8.3-26.6-23.3-48.1-44.8-65.5C337.7,10,299.1,2.4,257,10c-2.8,0.5-5.1,3.1-7.8,4.6c-0.5,2.5-0.8,4.8-1.3,7.6
		c-1.5-1.3-2.8-2.5-5.6-5c1,3.3,1.3,4.8,2.2,7.8c-2.8-2.2-4.6-4.6-5.8-4.3c-5.5,1.3-10.8,3.5-16.4,5.3c1.3,2.3,2,3.5,3.3,5.6
		c-2.6-1.3-4.3-2.2-6.9-3.5c1,2.6,1.3,4,2.2,6.5c-3.5-2-6.1-4.6-8.3-4.3c-3.5,0.3-7.1,2.3-9.9,4.5C180.9,50.7,164,71,157,97.2
		c-4.3,16.5-6,33.9-6.9,51.1c-1.2,23,5.3,44.5,18.4,63.7c15.4,22.8,34.6,41.4,60.4,52.1c7.6,3.1,15.7,5.5,23.5,8.1
		c0.2-0.5,0.3-1,0.5-1.5c-6.1-2.6-12.1-5.3-18.2-7.8l-0.2,0.2c2.2-1.5,4.1-3,7.6-5.5c-1,3-1.3,4-1.5,4.6c9.3-3.6,16.9,5.1,26,3
		c-0.3,2-0.5,3.5-0.8,5.5c1.8-2.2,3.1-3.6,4.6-5.1c0.3,0.2,0.8,0.5,1.2,0.7c0,1.3-0.2,2.8-0.2,2.8c2-0.5,4-1.2,6-1.3
		c6.3-0.7,12.4-1.3,18.7-1.7c23.7-1,44.8-9.3,63.7-22.8c19-13.7,33.4-31.4,42.2-53.6c1.2-2.8,2-6.8,6.3-7.4c1,0.5,2,1.2,3,1.7
		c-1.3,1.2-2.8,2.3-3.1,2.6c-1,3.8-1.3,6.9-2.6,9.4c-2.2,4.5-7.4,7.1-6.6,13.4c0.2,1.5-3.5,3.6-6,6c0.2,1,0.7,3.3,1,5.6
		c-4.3,1.5-8.1,3.3-6.9,9.6C391.5,228.5,394.3,225.8,394.2,221z M254.9,270.8c15.4,9.3,67.8,4.6,81.4-6.9
		C309.3,273.1,282.7,277.4,254.9,270.8z"/>
	<path d="M408.2,182c-4.3,0.5-5.1,4.5-6.3,7.4c-8.8,22-23.2,39.9-42.2,53.6c-18.9,13.6-40,21.8-63.7,22.8c-6.3,0.3-12.4,1-18.7,1.7
		c-2,0.2-4,0.8-6,1.3c0,0,0-1.5,0.2-2.8c-0.3-0.2-0.8-0.5-1.2-0.7c-1.3,1.5-2.6,3-4.6,5.1c0.3-2,0.5-3.5,0.8-5.5
		c-9.1,2.2-16.7-6.6-26-3c0.2-0.5,0.5-1.7,1.5-4.6c-3.5,2.5-5.6,4-7.6,5.5c0.8-2,1.7-3.8,3.1-7.3c-3.3,1.7-5.1,2.5-8.1,4
		c1.3-2.2,1.8-3.1,2.5-4.1c-0.3-0.3-0.5-0.7-0.8-0.8c-1.8,1-3.6,1.8-5.5,2.8c-0.2-0.3-0.5-0.7-0.7-0.8c0.8-1.2,1.7-2.2,2.3-3.3
		c-0.2-0.3-0.5-0.5-0.7-0.8c-1.8,0.8-3.6,1.5-6.6,2.6c1.3-2,2-3,2.6-4.1c-3.5-1.2-6.8-2.3-9.9-3.5c0.2-0.3,0.8-1.3,1.5-2.2
		c-0.3-0.5-0.7-1-1-1.3c-2,1.2-4.1,2.2-6.1,3.3c0,0.8,0,1.5,0,2.3c9.3,4.5,18.4,9.1,27.6,13.6c6.1,2.6,12.1,5.3,18.2,7.8
		c-0.2,0.5-0.3,1-0.5,1.5c-7.9-2.6-15.9-5-23.5-8.1c-25.8-10.8-45-29.3-60.4-52.1c-12.9-19.2-19.5-40.7-18.4-63.7
		c0.8-17,2.5-34.6,6.9-51.1c6.9-26.3,23.8-46.5,45.7-62.4c3-2.2,6.5-4,9.9-4.5c2.3-0.3,4.8,2.5,8.3,4.3c-0.8-2.5-1.3-3.8-2.2-6.5
		c2.6,1.3,4.1,2.2,6.9,3.5c-1.3-2.2-2-3.3-3.3-5.6c5.6-1.8,10.9-4,16.4-5.3c1.2-0.3,3.1,2.2,5.8,4.3c-0.8-3-1.2-4.5-2.2-7.8
		c2.6,2.5,4.1,3.6,5.6,5c0.5-2.8,0.8-5.1,1.3-7.6c0.3,0,0.7,0,1-0.2c0.7,2.2,1.5,4.3,2.2,6.5c0.5-0.2,0.8-0.3,1.3-0.5
		c0-1.5,0-3,0-5.5c2,2.2,3.3,3.6,4.6,5c0.3-0.2,0.5-0.5,0.8-0.7c-0.3-1.5-0.7-3-1-4.5c0.3-0.2,0.7-0.3,1-0.5c1.3,1.7,2.6,3.1,5,6
		c0-3.1,0-4.6,0-6.8c1.5,2,2.5,3.5,4.6,6.3c0.2-3.3,0.3-4.8,0.3-7.4c1.5,2.2,2.5,3.6,4.5,6.5c0.3-3.3,0.7-4.8,0.8-6.6
		c2.6,0,4.8,0,6.8,0c0.7,1.7,1.2,3.1,1.7,4.6c0.3-0.2,0.8-0.2,1.2-0.3c0.3-1.5,0.5-3,1-5.6c1.5,2.8,2.5,4.3,4,7.1
		c0.5-2.8,0.8-4.3,1.5-7.1c1.5,2.8,2.5,4.5,4,6.9c0.3-2.6,0.5-4.1,0.8-7.1c1.7,2.8,2.6,4.5,4.1,7.1c0.5-2.3,0.7-3.6,1-5.3
		c1.3,2.2,2.3,4,3.6,6.3c0.8-2.3,1.3-3.8,2-5.8c0.8,2.3,1.3,4,2.3,6.5c1.3-2.3,2.2-3.6,3.3-5.5c0.8,2.2,1.3,3.6,2,5.8
		c1.2-1.8,2-2.8,3-4.5c0.8,2.2,1.5,3.6,2.3,5.6c0.8-1.8,1.2-3,1.8-3.8c0.5-0.7,1.3-1,2-1.3h-0.2c0.2,2.2,0.3,4.5,0.5,8.1
		c1.5-3,2.3-4.3,3.6-7.1c0.7,3.1,1,4.8,1.3,6.6c1.3-1.5,2.2-2.6,3.5-4.3c0.7,2.5,1.2,4.3,1.8,6.3c1-1.5,1.7-2.6,3-4.5
		c0.5,3,0.8,4.8,1.3,7.4c1.5-2.2,2.3-3.3,3.6-5.3c0.3,3,0.5,4.6,0.8,6.5c0.3,0,0.8,0,1.2,0.2c0.5-1.2,1.2-2.5,2.3-5.1
		c0.5,3.5,0.8,5.3,1.2,7.6c1.3-1.3,2.3-2.3,3.6-3.8c0.3,2.6,0.5,4.5,0.7,7.1c1.5-1.8,2.5-3,4.1-5c0,3.3,0,5.1,0,8.1
		c1.7-2,2.6-3.1,5-5.6c-0.5,3.6-0.8,5.5-1,6.8c4.8,3.6,9.1,6.9,13.2,10.3c1-0.8,2-1.7,3-2.6c0.3,0.2,0.7,0.5,0.8,0.7
		c-0.7,1.8-1.3,3.6-1.5,3.8C380,60.1,385,66.9,390,73.8c3.5,4.8,6.9,9.6,10.4,14.4l-0.2-0.2c0.3,1.7,0.3,3.6,1,5.1
		c5.6,12.2,8.8,25.1,9.4,38.7c0.7,15.2,0,30.3-4.1,45.2c1.5,0,2.6,0,4.1,0c-2.2,1.3-3.8,2.5-5.6,3.6
		C406.4,181,407.4,181.5,408.2,182L408.2,182z M171.5,82.7C171.5,82.7,171.3,82.9,171.5,82.7c1.2-1.3,2.5-2.8,3.8-4.3
		c-1-1-2.2-2.2-3.1-3.1c-4.5,0-3.8,3.3-3.6,6.1c0,0.8-0.2,1.8-0.2,2.6C169.2,83.7,170.3,83.2,171.5,82.7z M390.5,171.1
		c2-0.8,4-1.7,7.1-3c-19.2-3.6-19.2-3.6-19.9-0.7C382.1,168.6,386.4,169.7,390.5,171.1c0,2.8,1,6.9-0.7,8.4
		c-1.5,1.3-5.6,0.5-8.4-0.2c-2.5-0.5-4.8-2-7.1-3c-0.5,0.3-0.8,0.7-1.3,1.2c0.8,1.5,1.2,3.3,2.3,4.3c3.3,2.8,7.1,3.5,11.1,1.5
		c2.3-1.2,5.5-2.2,6.5-4.1C394.3,176.4,395.3,172.5,390.5,171.1z M372.3,203.2c-2.3-1.7-4.3-3.6-6.8-4.8c-1-0.5-2.6,0.5-4,0.8
		c0.5,1.2,0.5,2.8,1.5,3.5c2.8,2,5.8,3.5,8.8,5C372,205.8,372.2,204.5,372.3,203.2c4.3,5.5,7.1,5.3,10.1-0.5
		c0.8-1.8,1.3-3.8,2.2-5.8c0.7-1.7,1.7-3.3,2.6-5c-14.6-8.6-15.9-8.9-17.9-4.1c2.2,1.2,4.5,2.2,6.6,3.3c3.6,1.8,7.1,3.5,5.6,8.6
		C380,205,376,203.3,372.3,203.2z M193,48.8c7.3,2.2,5.3-5.8,8.9-7.8c1.7,0.7,3.6,1.5,6.3,2.5c-1.3-5.3-4-7.4-7.6-4.6
		C197.5,41.4,195.5,45.3,193,48.8c-1.3,0-3.1-0.3-3.8,0.3c-4.8,5.5-9.4,11.2-14.4,17.2c2.2,1.2,3.6,2,6,3.3c1.3-3.3,2.5-6,3.6-8.6
		c0.5-1.5,6.1,0.8,3-3.6c2.8-1.8,5.8-3.6,9.1-6C195,50.1,194,49.5,193,48.8z M171.7,203c-0.5,1-1.8,2.3-1.7,2.6
		c2,3.6,4.5,7.1,6.9,11.1c1.7-1.5,3-2.3,4.3-3.5c-2.3-2.5-6.6-5.3-6.1-6.8C176.5,201.7,173.2,203.6,171.7,203
		c-0.2-1.2,0.5-2.8-0.2-3.8c-1.2-2.3-3.6-4-4.5-6.3c-1.8-5.8-2.3-11.9-4.5-17.4c-1.7-4.3-2.8-8.8-3-13.2c-0.2-3-2.8-6.9-6.5-7.1
		c3.3,12.1,6,24.2,9.9,35.6C164.9,195,164.4,202,171.7,203z M175,115c2,1,3.8,2.5,6,3.1c4.1,1.3,8.4,1.3,10.9-3
		c2.3-4.1,4.1-8.8,6.9-14.6c-8.8,4.5-13.9,0.2-18.7-5.8C177,101.7,171.5,107.2,175,115c-1,0.7-3,1-3.1,1.8c-1.7,6.9-3,14.1-4,21.2
		c-0.2,1,1.8,2.3,2.8,3.5c0.5-0.2,0.8-0.3,1.3-0.7c0-2.2,0-4.5,0-6.9c8.6,4.6,14.9,3.8,17.2-1.7c1.7-4,0.3-9.8-2.6-10.9
		c-0.2,0.8-0.2,1.7-0.3,2.3c-0.8,2.5-0.8,6-2.6,7.3c-1.3,1-5.6,0.3-6.9-1.2c-1.8-1.8-2.6-5.1-3-7.9C173.2,119.8,174.5,117.5,175,115
		z M337.8,66.3c0.2-0.3,0.5-0.8,0.7-1.2c-2.8-2.8-5.5-5.5-7.9-7.9c0.2,0,1.5-0.2,3-0.3c-2.3-2.5-6.3-5.6-6-6.1
		c2.2-3.6-0.3-5.6-2.3-6.5c-5.3-2.3-10.9-4.8-16.5-5.3c-8.9-1-15.2,5.5-21.7,10.6c-7.9,6.1-15.6,5.6-23.3,0.5
		c-4.1-2.6-8.3-5.5-12.4-8.1c-9.8-6.3-9.8-6.3-16.9,2.5c-0.3,0.3-0.7,0.5-1,0.7c-4,3.6-3.8,7.6-1,12.1c0.8,1.3,1.5,3.5,1.2,4.8
		c-1.5,6.5-3.3,12.7-5.3,19c-0.8,2.3-4.3,5.3-3.6,6.5c3.3,5.8,0.2,11.2-0.2,16.7c-2.2,27.1,2.5,53.1,14.6,77.4
		c6.8,13.6,14.9,26.3,23.5,38.7c6,8.8,13.7,16.4,20.7,24.6c-3,6.3-2.5,10.9,1.5,10.9c6.9,0,14.6,1.8,20-4.5c3.5-4,7.4-7.9,9.8-12.7
		c2.8-5.8,6.3-9.1,12.9-9.8c4.1-0.3,7.1-2.2,7.1-7.4c0.5-20,1.3-40,2-60.1c0.7-20,1.7-40,2.2-60.1C338.8,89.8,338.1,78.1,337.8,66.3
		z M197.6,179.2c0-0.8-0.2-1.7-0.2-2.5c-2-0.3-4-1.2-5.8-0.8c-3.3,0.7-6.6,2.5-9.9,3.1c-1.2,0.2-3.1-1.3-4-2.6c-0.7-1.2,0-3,0-4.5
		c1.5,0.2,3.1,0,4.5,0.3c1.2,0.3,2,1.3,3,1.8c7.4-7.3,7.6-8.8,1.8-16.5c3.6-6.3,3.6-12.6-0.2-14.2c-7.1-3.1-8.8,2.6-10.9,7.3
		c-0.2,0.3-0.3,1-0.5,1c-1.3,0.2-2.6,0.3-4.5,0.5c1.5-3.1,2.3-5,3.3-7.4c-5.6-0.7-6.6,3.1-6.3,6.1c0.3,2.5,2.5,5.8,4.6,6.8
		c1.3,0.7,4.6-2,6.5-3.8c1.2-1,1-3.3,2-4.3c0.8-0.8,2.6-0.8,4-1.2c-0.3,1.2-0.2,3-0.8,3.5c-3.3,1.8-2.3,3.6-0.8,6
		c1,1.5,1.8,3.1,2.3,5c0.3,1,0.7,2.6,0.2,3.3s-2.3,1-3.1,0.7c-4.6-1.8-9.4-1.2-9.4,4c-0.2,5,3,9.9,4.6,14.7c0,0.2,1.2,0.3,1.7,0.2
		C185.7,183.5,191.7,181.3,197.6,179.2z M193.8,213.1c1.8,2.5,3.8,5.5,6.1,8.3c3.8,4.5,10.3,4.8,13.9,0.2c6-7.8,6-14.6-4-19.7
		C204.1,206,199,209.6,193.8,213.1z M232.4,227.8c0.7-0.2,1.3-0.3,1.8-0.5c-0.7-3-0.7-6.6-2.5-8.4c-1.5-1.7-6.6-2.5-7.6-1.3
		c-3.6,4.1-6.9,9.1-9.1,14.1c-0.5,1.3,2.8,5.1,5.1,6.5c1.5,0.8,5.6,0,6.1-1.3c1.2-2.3,1.3-5.6,0.8-8.4c-0.3-2-2.3-3.6-3.5-5.3
		c0.7-0.5,1.2-1.2,1.8-1.7C227.9,223.5,230.2,225.7,232.4,227.8z M194.8,184.5c-6.3-0.2-12.2,5.1-12.1,10.8
		c0.2,6,4.5,10.4,10.8,10.6c6.6,0.2,10.9-4.3,11.1-12.1C204.6,188.6,200.5,184.6,194.8,184.5z M185.4,88.7
		c5.3,6.9,10.4,9.3,15.1,7.1c4-1.8,6.9-9.3,5.3-14.4c-0.8,1.3-1.3,2.3-2,3.1c-2.2,2.2-4,5.8-6.5,6.1c-2.2,0.3-6.1-2.2-7.1-4.5
		c-1-2,0.5-5.6,1.8-8.1c2.3-4.1,5.3-7.8,8.1-11.6c-0.7-0.5-1.3-1-2.2-1.3c-6.3,8.3-13.6,15.7-16.4,26.3c0,0.2,0.5,0.5,1,0.8
		C183.4,91.2,184.4,90,185.4,88.7z M395.2,158.5c0.2,0.7,0.5,1.8,1.5,4.6c1-4.6,2-7.4,2.3-10.4c1-8.3-0.8-11.2-6.9-11.7
		c-7.8-0.5-12.2,3.3-12.6,10.9c-0.2,2.6,0,5.5,0,7.4C384.8,159.1,389.7,158.8,395.2,158.5z M391,93c-7.4,4.1-13.1,7.3-18.5,10.4
		c0.3,0.5,0.7,1,1,1.3c4.3-1.3,8.6-2.8,13.1-3.8c1.2-0.3,3.1,0.8,3.8,1.8c0.5,0.8,0.2,3-0.5,3.6c-0.7,0.7-2.5,0.2-3.8-0.2
		c-1.2-0.2-2.2-0.8-3-1.3c-7.1,9.8-7.1,13.7-1,15.1c-2.3-7.9-2.3-7.8,6.9-8.9c1.8-0.2,4.8-3.3,4.8-5C393.7,102.1,392.2,97.9,391,93z
		 M393.4,136.6c6.9-2.8,6.5-7.9,4.8-12.2c-0.8-2.2-5-4.1-7.6-4.3c-5.5-0.3-10.3,4.5-10.6,9.3c-0.3,3.6,1.7,6.6,5.8,8.1
		c-1.2-2-3-3.8-2.6-5c0.7-2.6,2.6-5.1,4-7.6c1.5,1.5,3.3,3,4.1,4.8C392.4,131.5,392.7,133.8,393.4,136.6z M368.7,87
		c-2.6-4.8-11.4-7.4-5.3-12.7c6.6-5.8,7.6,4.1,11.7,7.1c1.7-4.5,4.6-8.4,0.2-12.2c-3.8-3.3-8.1-2.3-11.9,0c-4,2.5-5.6,9.3-3.5,13.2
		C361.4,85.5,363.4,89,368.7,87z M208.9,149.6c3.1,1.2,8.1,1.7,9.8-3c1.5-4.5,0.5-9.9-0.7-14.7c-0.2-0.8-6.8-1.5-9.1,0
		c-1.8,1.2-2.6,5.8-2,8.4c0.8,3.6,4.1,4.1,7.4,1.7c-1.7-1.8-3.1-3.3-5.3-5.8c2.3-0.7,4.5-1.7,5-1.2c1.3,1.3,3,4.1,2.5,5.1
		C214.5,143.3,211.5,146.2,208.9,149.6z M354.5,147.4c0.3-0.7,0.7-1.2,1-1.8c-6-0.8-4.6-3.5-3.1-6.5c1-1.8,2.3-4,2-5.6
		c-0.7-2.3-2.5-5.6-4.3-6c-3.6-0.7-5.1,2.2-4.5,6.1c1.5-1.2,3.1-2.3,4.6-3.5c0.3,0.3,0.8,0.7,1.2,0.8c-2.6,5.3-5.1,10.6-8.4,17.4
		C347.9,148.1,351.2,147.7,354.5,147.4z M364.6,144.4c-0.5-0.8-1.2-1.7-1.7-2.3c1.8-2.2,4.1-4.1,5.6-6.5c1.2-1.8,1.5-4.1,1.7-6.3
		c0-0.7-2.5-2-3.3-1.8c-1.8,0.5-4.5,1.8-4.6,3.1c-0.8,4.3-1.2,8.9-0.5,13.2c0.2,1.7,3.1,3.5,5.3,4.1c1.2,0.3,3.6-1.3,4.3-2.6
		c0.5-1.2-0.8-3.1-0.8-3.5C367.7,142.9,366.1,143.6,364.6,144.4z M200.8,151.7c0-8.8,0-15.1,0-23.2c-1.8,3-3.6,4.8-4,6.8
		c-0.5,4-0.3,8.3,0.2,12.2C197.1,148.7,199,149.7,200.8,151.7z M207.2,238.1c-3.5,0.2-5.1,0.3-7.1,0.5c0.7-1.3,1.2-2.2,1.7-3.3
		c-2.2-0.2-3.6-0.2-5.3-0.3c0.5-1.2,0.8-2.2,1.8-4.1c-3,1.2-5,1.8-7.1,2.5C198.8,243.2,200.1,243.7,207.2,238.1z M383.6,87
		c-0.3-0.7-0.7-1.2-1.2-1.8c-4.5,2.3-8.9,4.6-13.2,7.3c-0.7,0.3-0.5,2-0.7,3.1c1,0,2.5,0.7,3.1,0.2C375.8,93,379.6,89.8,383.6,87z
		 M158.8,127.5c0.2-3.1,0.3-5.6,0.5-8.1c0-1.8,0-3.8,0-5.6c-0.5,0-1.2,0-1.7,0C155,125.7,155,125.7,158.8,127.5z M182.4,220
		c-0.5,0.7-1.2,1.3-1.7,2c2,2.5,4,5,6.5,7.9c1.7-2.2,2.8-3.5,3.8-5C187.7,223.2,185.1,221.5,182.4,220z M161.1,111.5
		c1.3-4.6,2.5-9.1,3.8-13.6C159.1,103.1,157.8,109.4,161.1,111.5z"/>
	<path d="M250.1,14.6c-0.3,0-0.7,0-1,0.2c2.6-1.7,5-4.1,7.8-4.6c42.2-7.6,80.7-0.2,114.6,27.5c21.5,17.4,36.4,39,44.8,65.5
		c9.9,31.8,7.6,62.4-5.3,92.5c-3,7.1-7.1,13.9-11.1,20.5c-1.2,2.2-3.8,3.3-5.8,5l-0.3-0.2c-0.5-2.3-0.8-4.6-1-5.6
		c2.5-2.5,6.1-4.5,6-6c-0.8-6.3,4.5-8.9,6.6-13.4c1.3-2.6,1.7-5.6,2.6-9.4c0.3-0.3,1.8-1.5,3.1-2.6c-1-0.5-2-1.2-3-1.7l0.2,0.2
		c1.7-1.3,4.5-2.3,4.8-3.8c2.2-8.3,5-16.7,5.1-25.3c0.3-13.1,2.5-26.8-5.3-39c-0.2,0,0.7-0.3,0.8-0.5c-1.8-4.3-3.6-8.4-5.1-12.6
		c-1.7-4.6-2.8-9.3-4.1-14.1c-1.3,0.3-2.5,0.8-3.6,1.2l0.2,0.2c-1-2.3,6.6-5.6,0.8-6.8c-1.3-3.8-2-6.9-3.6-9.8
		c-9.9-16.2-22.5-29.9-38.7-40c-11.4-7.1-23.2-13.6-36.7-15.6h0.2c-12.9-4.8-26.1-6.5-39.7-5.5C272.1,11.2,261.2,13.1,250.1,14.6z"
		/>
	<path d="M254.9,270.8c27.6,6.5,54.4,2.3,81.4-6.9C322.9,275.6,270.3,280.2,254.9,270.8z"/>
	<path d="M394,220.7l0.3,0.2c0,5-2.6,7.6-7.3,9.3C385.9,224.2,389.5,222.2,394,220.7z"/>
	<path fill="none" d="M337.8,66.3c0.3,11.7,1,23.5,0.7,35.1c-0.3,20-1.3,40-2.2,60.1c-0.7,20-1.5,40-2,60.1
		c-0.2,5.3-3.1,7.1-7.1,7.4c-6.6,0.5-10.1,4-12.9,9.8c-2.3,4.6-6.3,8.6-9.8,12.7c-5.5,6.3-13.2,4.6-20,4.5c-4,0-4.5-4.8-1.5-10.9
		c-6.9-8.1-14.7-15.9-20.7-24.6c-8.6-12.4-16.7-25.3-23.5-38.7c-12.1-24.3-16.7-50.3-14.6-77.4c0.5-5.5,3.5-10.9,0.2-16.7
		c-0.7-1.2,2.8-4.1,3.6-6.5c2-6.3,3.8-12.6,5.3-19c0.3-1.5-0.3-3.5-1.2-4.8c-2.6-4.3-3-8.3,1-12.1c0.3-0.3,0.7-0.5,1-0.7
		c7.1-8.8,7.1-8.8,16.9-2.5c4.1,2.6,8.3,5.5,12.4,8.1c7.9,5.1,15.6,5.6,23.3-0.5c6.5-5.1,12.7-11.4,21.7-10.6
		c5.6,0.7,11.2,3,16.5,5.3c2.2,0.8,4.6,2.8,2.3,6.5c-0.3,0.5,3.5,3.8,6,6.1c-1.7,0.2-3,0.3-3,0.3c2.5,2.5,5.1,5.1,7.9,7.9
		c-1.3-1-2.6-2.6-4-2.6c-3.3-0.2-6.8-0.2-9.8,1c-3.6,1.5-2.8,4.6-1.2,7.8c0.7,1.3,0.5,3.1,0.3,4.8c-1.8,18.2-3.6,36.4-5.5,54.8
		c-0.3,3.3,0,6.6,0,9.9c0.7,0,1.2,0,1.8,0c1.3-13.1,2.5-26.1,3.8-40c1.7,1,2.5,1.7,3.3,2.2c6.1,3.3,8.4,2.6,9.1-4.1
		c0.8-8.8,0.7-17.5,0.7-26.3c0-1-1.7-2.2-2.5-3.1c-0.7-0.2-1.3-0.2-2-0.3c-0.8-1-1.8-2-3.8-4.1C332.8,65.5,335.3,66,337.8,66.3z
		 M255.7,72.3c-0.7,0.8-2.3,1.8-2.2,2.3c1.8,5.3,3.8,10.6,5.8,16c0.3-0.2,0.7-0.3,1-0.3c-0.3-3.5-0.8-6.8-1.2-10.3
		c0.7,1.2,1.5,2.3,2.2,3.5c0.7-0.5,1.3-0.8,2-1.3c-2.6-6.6-5.1-13.4-7.8-20c-0.3,0-0.5,0-0.8,0.2C255.1,65.5,255.4,68.8,255.7,72.3z
		 M305.7,55.4c1.8,3,3.6,6,5.5,8.9c0.7,0,1.2,0,1.8,0c0.7-2.5,2.2-5.1,1.8-7.4c-0.2-1-3.8-1.7-5.8-2.3c2.2-2.8,4.1-5.6,5.8-7.9
		c-3.6-0.3-8.6-0.7-15.1-1.2C302,49.5,303.9,52.4,305.7,55.4z M320.4,199.5c1.2,3.8,1.7,7.9,3.5,11.2c1.7,3,5,5.3,8.3,8.6
		c-0.8-7.1-1.7-14.1-2.6-22.8c1.2,2.8,1.7,4,2.3,5.3c-0.7-3.8,4.1-9.3-2.8-10.9c2.2-5,1.5-9.1-3.5-12.1c6.9-5.1,9.9-14.1,6-19.2
		c-0.7,2.8-1.3,5.5-2,8.1c-2.5-2.6-4.6-5-6.6-7.3c-0.3,0.2-0.7,0.5-1,0.7c0.5,3.6,1,7.3,1.7,10.9c-6.5-8.1-1.5-18.4-5.5-27.1
		c-2,26.1-4.1,52.4-6.1,78.6c0.5,0,1.2,0,1.7,0.2c0.3-4.5,0.8-8.8,0.7-13.2C313.9,205.5,315.8,201.8,320.4,199.5L320.4,199.5z
		 M255.2,85.4c-5.6-8.4-2.6-21.3-13.7-27.3c-1.5-0.8-1.7-3.6-2.5-5.6c-0.5,0.2-0.8,0.3-1.3,0.5c0.3,2.2,0.5,4.3,0.8,6.5
		c-2,5.8-5.3,11.4-5.5,17.2c-0.2,4,3.1,8.1,0.3,12.6c6.1,6.9,1.8,14.7,1.7,22c-0.2-2.8-0.5-5.5-0.7-8.3c-0.8,12.2-0.2,24.3,0.3,36.4
		c0.2,2.6-0.7,5.6-1.8,8.1c-3,6,3,7.8,5.1,11.4c-0.7-2.6-1.3-5.3-2-7.9c3.1,6.3,5.1,12.9,8.1,19c1.8,3.8,4.6,9.3,7.6,9.8
		c6.6,1.3,7.9,6.5,11.2,10.3c5,5.8,9.9,11.4,15.9,18.4c2-6.8,3.3-11.2,5.1-17c2.2,5,3.8,8.3,5.3,11.7c0.2-0.2,0.3-0.2,0.5-0.3
		c-0.7-4.5-1.3-8.8-2-13.2c1.8,3.6,3.6,7.1,5.3,10.8c-0.8-5.6-2.2-10.9-4-16c-0.3-1-2.5-1.3-3.6-2c-1-2-2-3.8-2.8-5.8
		c0.3-0.2,0.5-0.3,0.8-0.5c0.7,0.5,1.5,1.2,3.6,2.8c-1.7-6-2.8-10.4-4.5-16.7c2,3,3.1,4.5,4.1,6c0.3-0.2,0.8-0.3,1.2-0.3
		c-0.7-3.1-1.5-6.5-2.3-10.4c1.3,1.5,2,2.5,2.5,2.8c4.6-4.6,0.3-11.4,3.8-16.7c0.5-0.7-1-3-2-4.3c-0.5-0.8-2.5-1-2.5-1.5
		c0.3-6.8-5.1-10.8-7.1-16.4c-1.3-2.5-2.3-5.1-3.8-7.4c-2.2-3.3-3.1-8.3-8.9-6.5c-4.1-2.8-8.3-5.8-12.4-8.6
		C252.9,94,253.1,89.7,255.2,85.4z M302.9,121.1c-0.5,0.2-1,0.3-1.5,0.5c3.8,8.1,5.3,16.2,3.3,25.3c-3.3,15.2-5.3,30.8-7.4,46.3
		c-0.3,2,0.8,4,1.2,6c0.5-0.2,1.2-0.3,1.7-0.5c0.5-9.1,1-18.2,1.5-28.3c1.8,1.3,2.5,1.8,4.3,3.1c-1.2-4-3-7.1-2.5-9.8
		c1.8-12.6,4.1-25,6.6-37.6c1.7-8.6,4.6-16.9,6-25.5c1.3-8.4,1.3-17,1.8-25.5c-0.3,0-0.8-0.2-1.2-0.2c-2.2,11.9-4.5,23.8-6.8,36.2
		c-1.3-2.3-2.3-4.1-3.5-6.3c1,5.5,2,10.3,3.1,16.7c-2-2.3-2.6-3-3.8-4.5c1,4.3,1.7,7.8,2.3,11.2c-0.5,0.2-1.2,0.3-1.7,0.5
		C305.2,126.4,304,123.7,302.9,121.1z M333.3,134.7c4.3-10.6,3.6-18.5-2.2-22c-2.3,7.1-4.6,14.1-6.9,21.5
		C328.5,134.3,330.8,134.5,333.3,134.7z M313.3,238.1c-2.3-2.8-3.5-4.8-5-6.1c-0.8-0.8-2.6-1.7-3.6-1.3c-0.8,0.2-1.7,2.5-1.3,3.3
		c0.8,2.3,2.2,5,4,6.1C308.5,240.7,311.1,238.9,313.3,238.1z M281,232.1c-0.7,0.8-1.3,1.8-2,2.6c2.8,2.2,5.5,4.5,8.3,6.6
		c0.7-1.2,1.8-3.1,1.7-3.3C286.5,235.9,283.7,233.9,281,232.1z M299.7,123.6c-0.7,0.2-1.2,0.3-1.8,0.5c1.8,5.1,3.6,10.1,5.3,15.2
		c0.7-0.2,1.2-0.3,1.8-0.7C303.2,133.7,301.4,128.7,299.7,123.6z M291.1,101.4c-0.7,0.2-1.2,0.5-1.8,0.7c1.5,2.6,2.6,5.3,4.6,7.6
		c0.3,0.5,3.1-1.2,4.5-1.7C295.6,105.5,293.4,103.6,291.1,101.4z M291,174.7c-0.7,0.2-1.5,0.3-2.2,0.7c2,5.6,3.8,11.2,5.8,16.9
		c0.3-0.2,0.7-0.2,1-0.3C293.9,186.1,292.4,180.5,291,174.7z"/>
	<path fill="none" d="M322.7,15.7c13.6,2,25.3,8.4,36.7,15.6c16.2,10.1,28.8,23.8,38.7,40c1.7,2.6,2.3,6,3.6,9.8
		c5.8,1.3-1.7,4.6-0.8,6.8c-3.5-4.8-6.9-9.6-10.4-14.4c-5-6.9-9.9-13.7-15.6-21.5c0.2-0.3,0.8-2.2,1.5-3.8c-0.3-0.2-0.7-0.5-0.8-0.7
		c-1,0.8-2,1.8-3,2.6c-4.3-3.3-8.4-6.6-13.2-10.3c0.2-1.2,0.5-3.1,1-6.8c-2.2,2.5-3.1,3.6-5,5.6c0-3,0-5,0-8.1c-1.7,2-2.6,3.1-4.1,5
		c-0.3-2.6-0.5-4.5-0.7-7.1c-1.3,1.5-2.3,2.5-3.6,3.8c-0.3-2.3-0.7-4.1-1.2-7.6c-1.3,2.8-1.8,4-2.3,5.1c-0.3,0-0.8,0-1.2-0.2
		c-0.2-1.7-0.3-3.5-0.8-6.5c-1.3,2-2.2,3.1-3.6,5.3c-0.5-2.6-0.7-4.5-1.3-7.4c-1.3,1.8-2,3-3,4.5c-0.7-2-1-3.8-1.8-6.3
		c-1.3,1.7-2.3,2.6-3.5,4.3c-0.3-2-0.7-3.5-1.3-6.6c-1.5,2.8-2.2,4.1-3.6,7.1C322.9,20.2,322.9,18,322.7,15.7z"/>
	<path d="M334.6,69.3c0.8,1,2.5,2.2,2.5,3.1c0,8.8,0.2,17.5-0.7,26.3c-0.7,6.8-3,7.4-9.1,4.1c-0.8-0.5-1.7-1-3.3-2.2
		c-1.3,13.9-2.6,27-3.8,40c-0.7,0-1.2,0-1.8,0c0-3.3-0.3-6.6,0-9.9c1.7-18.2,3.6-36.6,5.5-54.8c0.2-1.7,0.3-3.5-0.3-4.8
		c-1.7-3-2.5-6.1,1.2-7.8c2.8-1.2,6.5-1.2,9.8-1c1.3,0,2.6,1.7,4,2.6c-0.2,0.3-0.5,0.8-0.7,1.2c-2.5-0.5-5-0.8-9.1-1.5
		c2,2.2,3,3.1,3.8,4.1c-5.1,0.2-7.3,3-6.6,8.3c2.3,1,4.6,2.2,7.3,3.3c0.5-1.5,0.8-2.8,1.5-4.6c-2.3,0-4,0-6,0
		C331,73.5,332.8,71.3,334.6,69.3z"/>
	<path fill="none" d="M400.8,87.7c1.2-0.3,2.3-0.7,3.6-1.2c1.5,4.8,2.6,9.6,4.1,14.1c1.5,4.1,3.3,8.3,5.1,12.6
		c-0.2,0.2-1,0.7-0.8,0.5c7.8,12.4,5.6,26.1,5.3,39c-0.2,8.4-3,16.9-5.1,25.3c-0.5,1.7-3.1,2.6-4.8,3.8c-1-0.7-1.8-1.2-2.8-1.8
		c1.8-1.2,3.6-2.3,5.6-3.6c-1.5,0-2.6,0-4.1,0c4.1-14.9,5-30.1,4.1-45.2c-0.7-13.4-3.8-26.3-9.4-38.7
		C401.1,91.3,401.1,89.5,400.8,87.7z"/>
	<path fill="none" d="M197.6,179.2c-6,2.2-11.7,4.3-17.7,6.5c-0.5,0.2-1.7,0.2-1.7-0.2c-1.8-5-4.8-9.9-4.6-14.7
		c0.2-5.1,4.8-5.8,9.4-4c0.8,0.3,2.6,0,3.1-0.7s0.2-2.2-0.2-3.3c-0.7-1.7-1.3-3.5-2.3-5c-1.5-2.3-2.6-4.3,0.8-6
		c0.7-0.3,0.7-2.3,0.8-3.5c-1.3,0.3-3.1,0.3-4,1.2c-1,1.2-1,3.5-2,4.3c-2,1.7-5.1,4.3-6.5,3.8c-2.2-1-4.5-4.3-4.6-6.8
		c-0.3-2.8,0.8-6.8,6.3-6.1c-1,2.3-2,4.3-3.3,7.4c1.8-0.2,3.1-0.3,4.5-0.5c0.2,0,0.3-0.7,0.5-1c2.2-4.6,4-10.4,10.9-7.3
		c3.8,1.7,3.8,7.9,0.2,14.2c5.8,7.8,5.6,9.1-1.8,16.5c-1-0.7-1.8-1.7-3-1.8c-1.5-0.3-3-0.3-4.5-0.3c0,1.5-0.7,3.3,0,4.5
		c0.7,1.3,2.8,3,4,2.6c3.5-0.7,6.6-2.5,9.9-3.1c1.8-0.3,4,0.5,5.8,0.8C197.5,177.5,197.5,178.3,197.6,179.2z"/>
	<path fill="none" d="M250.1,14.6c10.9-1.3,22-3.1,32.9-4.1c13.6-1.2,27,0.7,39.7,5.5c-0.7,0.5-1.7,0.8-2,1.3c-0.7,1-1,2.2-1.8,3.8
		c-0.8-2-1.5-3.5-2.3-5.6c-1,1.5-1.8,2.6-3,4.5c-0.7-2.2-1.3-3.6-2-5.8c-1.2,1.8-2,3.1-3.3,5.5c-1-2.6-1.5-4.1-2.3-6.5
		c-0.7,2-1.2,3.3-2,5.8c-1.3-2.3-2.3-4-3.6-6.3c-0.3,1.8-0.5,3-1,5.3c-1.5-2.6-2.5-4.3-4.1-7.1c-0.3,2.8-0.5,4.3-0.8,7.1
		c-1.5-2.6-2.3-4.1-4-6.9c-0.5,2.8-0.8,4.3-1.5,7.1c-1.5-2.6-2.3-4.3-4-7.1c-0.5,2.8-0.8,4.3-1,5.6c-0.3,0.2-0.8,0.2-1.2,0.3
		c-0.5-1.5-1-2.8-1.7-4.6c-2,0-4.1,0-6.8,0c-0.2,1.7-0.3,3.3-0.8,6.6c-2-2.8-3-4.1-4.5-6.5c-0.2,2.5-0.2,4.1-0.3,7.4
		c-2.2-2.8-3.1-4.3-4.6-6.3c0,2.2,0,3.6,0,6.8c-2.3-2.8-3.6-4.5-5-6c-0.3,0.2-0.7,0.3-1,0.5c0.3,1.5,0.7,3,1,4.5
		c-0.3,0.2-0.5,0.5-0.8,0.7c-1.3-1.5-2.6-2.8-4.6-5c0,2.5,0,4,0,5.5c-0.5,0.2-0.8,0.3-1.3,0.5C251.6,18.9,250.9,16.7,250.1,14.6z"/>
	<path fill="none" d="M193.8,213.1c5-3.5,10.1-7.1,16-11.2c9.9,5,9.9,11.9,4,19.7c-3.6,4.6-10.1,4.3-13.9-0.2
		C197.6,218.5,195.7,215.6,193.8,213.1z M200.6,216.4c2,1.2,3.8,3.1,5.3,3c2.5-0.3,5.6-1.5,6.9-3.5c1-1.3-0.5-4.5-0.8-6.6
		c-2.2,0.8-4.5,1.5-6.5,2.6C203.9,212.7,202.6,214.4,200.6,216.4z"/>
	<path fill="none" d="M175.1,115.1c-3.6-7.9,1.8-13.4,5-20.3c4.8,5.8,9.8,10.3,18.7,5.8c-2.8,5.8-4.5,10.4-6.9,14.6
		c-2.5,4.3-6.8,4.3-10.9,3C178.8,117.5,177,116.1,175.1,115.1L175.1,115.1z M184.6,115.6c2.8-2.8,4.3-4.3,5.8-6
		c-3.5-2-6.8-4-10.3-5.6c-0.2-0.2-2.6,3-2.3,3.3C179.4,109.8,181.8,112.2,184.6,115.6z"/>
	<path fill="none" d="M232.4,227.8c-2.3-2.2-4.5-4.3-6.8-6.5c-0.7,0.5-1.2,1.2-1.8,1.7c1.2,1.8,3.1,3.5,3.5,5.3
		c0.5,2.8,0.3,6.1-0.8,8.4c-0.7,1.3-4.8,2.2-6.1,1.3c-2.3-1.3-5.6-5.1-5.1-6.5c2.2-5.1,5.5-9.9,9.1-14.1c1-1.2,6.1-0.2,7.6,1.3
		c1.8,2,1.7,5.6,2.5,8.4C233.7,227.5,233,227.6,232.4,227.8z"/>
	<path fill="none" d="M194.8,184.5c5.5,0.2,9.8,4.1,9.6,9.3c-0.2,7.8-4.3,12.4-11.1,12.1c-6.1-0.2-10.6-4.6-10.8-10.6
		C182.8,189.6,188.5,184.3,194.8,184.5z M194.5,186.8c-3.5,3.8-5.6,6.1-7.8,8.4c2.3,2,4.8,6,6.8,5.8c2.5-0.3,5.6-3.6,6.6-6.3
		C200.8,193.4,197.3,190.4,194.5,186.8z"/>
	<path fill="none" d="M185.4,88.7c-1,1.3-2,2.5-2.8,3.6c-0.5-0.3-1-0.7-1-0.8c2.8-10.6,10.1-18,16.4-26.3c0.7,0.5,1.3,1,2.2,1.3
		c-2.8,3.8-5.8,7.4-8.1,11.6c-1.3,2.3-2.8,6-1.8,8.1c1,2.3,5,4.8,7.1,4.5c2.5-0.3,4.5-3.8,6.5-6.1c0.8-0.8,1.2-1.8,2-3.1
		c1.7,5.1-1.3,12.6-5.3,14.4C195.8,98.1,190.7,95.8,185.4,88.7z"/>
	<path fill="none" d="M175,115c-0.7,2.3-1.8,4.8-1.7,7.1c0.3,2.8,1.2,6.1,3,7.9c1.5,1.5,5.6,2.2,6.9,1.2c1.7-1.3,1.8-4.8,2.6-7.3
		c0.2-0.7,0.2-1.5,0.3-2.3c3,1.2,4.3,6.9,2.6,10.9c-2.3,5.5-8.8,6.3-17.2,1.7c0,2.5,0,4.8,0,6.9c-0.5,0.2-0.8,0.3-1.3,0.7
		c-1-1.2-2.8-2.5-2.8-3.5c1-7.1,2.5-14.2,4-21.2C172,116.1,174,115.6,175,115C175.1,115.1,175,115,175,115z"/>
	<path fill="none" d="M395.2,158.5c-5.6,0.3-10.4,0.5-15.7,0.8c0-2.2-0.2-4.8,0-7.4c0.3-7.6,4.8-11.6,12.6-10.9
		c6,0.5,7.8,3.3,6.9,11.7c-0.3,3-1.3,5.8-2.3,10.4C395.8,160.3,395.5,159.1,395.2,158.5z M395.5,155.5c0.7-0.5,1.5-0.8,2.2-1.3
		c-1.3-2.8-2.2-6.3-4.3-7.9c-1.7-1.3-5.5-0.8-7.8,0.2c-1.7,0.8-2.2,3.8-3.1,6c2.2,0.8,4.3,1.7,6.5,2.2
		C391,155,393.4,155.2,395.5,155.5z"/>
	<path fill="none" d="M391,93c1.2,5,2.6,9.1,2.6,13.2c0,1.7-3,4.8-4.8,5c-9.3,1.2-9.3,1-6.9,8.9c-6.1-1.3-6.1-5.1,1-15.1
		c1,0.5,2,1.2,3,1.3c1.3,0.3,3.1,0.8,3.8,0.2c0.8-0.7,1.2-3,0.5-3.6c-0.8-1-2.6-2.2-3.8-1.8c-4.5,1-8.8,2.5-13.1,3.8
		c-0.3-0.5-0.7-1-1-1.3C378.1,100.3,383.6,97.1,391,93z"/>
	<path fill="none" d="M171.7,203c-7.3-1-6.9-7.9-8.4-12.4c-4-11.4-6.6-23.5-9.9-35.6c3.5,0.2,6.1,4.1,6.5,7.1
		c0.3,4.6,1.3,8.9,3,13.2c2.2,5.6,2.6,11.7,4.5,17.4c0.7,2.3,3.1,4.1,4.5,6.3C172.2,200.2,171.7,201.8,171.7,203L171.7,203z"/>
	<path fill="none" d="M393.4,136.6c-0.8-2.8-1-5.1-2.2-6.9c-1-1.8-2.8-3.1-4.1-4.8c-1.3,2.5-3.3,4.8-4,7.6c-0.3,1.2,1.5,3,2.6,5
		c-4.1-1.5-6.1-4.5-5.8-8.1c0.5-4.8,5.3-9.4,10.6-9.3c2.6,0.2,6.8,2.2,7.6,4.3C399.8,128.7,400.5,133.8,393.4,136.6z"/>
	<path fill="none" d="M368.7,87c-5.3,2-7.1-1.5-8.9-4.6c-2.2-4-0.3-10.8,3.5-13.2c3.8-2.3,8.1-3.5,11.9,0c4.5,3.8,1.5,7.8-0.2,12.2
		c-4.1-3-5.1-12.9-11.7-7.1C357.1,79.6,366.1,82.2,368.7,87z"/>
	<path fill="none" d="M208.9,149.6c2.6-3.3,5.6-6.3,7.6-9.6c0.5-1-1.2-3.6-2.5-5.1c-0.5-0.5-2.6,0.7-5,1.2c2.2,2.5,3.6,4,5.3,5.8
		c-3.5,2.5-6.6,2-7.4-1.7c-0.7-2.6,0.2-7.3,2-8.4c2.3-1.5,8.9-0.7,9.1,0c1,4.8,2.2,10.3,0.7,14.7C217.2,151.2,212,150.7,208.9,149.6
		z"/>
	<path fill="none" d="M234.5,262.7c-9.3-4.5-18.4-9.1-27.6-13.6c0-0.8,0-1.5,0-2.3c2-1.2,4.1-2.2,6.1-3.3c0.3,0.5,0.7,1,1,1.3
		c-0.7,1-1.3,2-1.5,2.2c3.3,1.2,6.5,2.2,9.9,3.5c-0.7,1.2-1.3,2.2-2.6,4.1c2.8-1.2,4.8-2,6.6-2.6c0.2,0.3,0.5,0.5,0.7,0.8
		c-0.8,1.2-1.7,2.2-2.3,3.3c0.2,0.3,0.5,0.7,0.7,0.8c1.8-1,3.6-1.8,5.5-2.8c0.3,0.3,0.5,0.7,0.8,0.8c-0.7,1-1.2,2-2.5,4.1
		c3-1.3,4.8-2.3,8.1-4C236,259.1,235.2,260.9,234.5,262.7C234.4,262.9,234.5,262.7,234.5,262.7z"/>
	<path fill="none" d="M193,48.8c1,0.7,2,1.5,3.6,2.6c-3.3,2.2-6.3,4-9.1,6c3.1,4.5-2.5,2.2-3,3.6c-1.2,2.6-2.3,5.5-3.6,8.6
		c-2.3-1.3-3.8-2.2-6-3.3c5-6.1,9.6-11.7,14.4-17.2C189.9,48.3,191.7,48.8,193,48.8L193,48.8z"/>
	<path fill="none" d="M354.5,147.4c-3.3,0.3-6.6,0.7-11.4,1c3.3-6.6,5.8-12.1,8.4-17.4c-0.3-0.3-0.8-0.7-1.2-0.8
		c-1.5,1.2-3.1,2.3-4.6,3.5c-0.7-4,0.8-6.9,4.5-6.1c1.8,0.3,3.6,3.6,4.3,6c0.5,1.7-1,3.8-2,5.6c-1.5,3-2.8,5.8,3.1,6.5
		C355.1,146.2,354.8,146.9,354.5,147.4z"/>
	<path fill="none" d="M364.6,144.4c1.7-0.8,3.1-1.5,5.6-2.6c0.2,0.3,1.5,2.3,0.8,3.5c-0.7,1.3-3.1,3-4.3,2.6
		c-2.2-0.7-5.1-2.5-5.3-4.1c-0.7-4.3-0.2-8.9,0.5-13.2c0.2-1.3,3-2.5,4.6-3.1c1-0.3,3.5,1.2,3.3,1.8c0,2.2-0.5,4.5-1.7,6.3
		c-1.5,2.5-3.6,4.3-5.6,6.5C363.4,142.8,363.9,143.6,364.6,144.4z"/>
	<path fill="none" d="M372.3,203.2c3.5,0.2,7.4,1.8,9.1-3.5c1.5-5.1-2-6.9-5.6-8.6c-2.2-1-4.5-2.2-6.6-3.3c2-4.8,3.1-4.5,17.9,4.1
		c-0.8,1.7-1.8,3.3-2.6,5c-0.8,1.8-1.2,4-2.2,5.8C379.5,208.4,376.8,208.6,372.3,203.2L372.3,203.2z"/>
	<path fill="none" d="M390.5,171.1c4.6,1.5,3.8,5.5,2.5,8.1c-1,2-4.1,3-6.5,4.1c-4,2-7.8,1.3-11.1-1.5c-1.2-1-1.7-2.8-2.3-4.3
		c0.5-0.3,0.8-0.7,1.3-1.2c2.3,1,4.6,2.5,7.1,3c2.8,0.5,6.9,1.5,8.4,0.2C391.5,177.8,390.5,173.9,390.5,171.1L390.5,171.1z"/>
	<path fill="none" d="M200.8,151.7c-1.8-2-3.6-3-3.8-4.1c-0.5-4.1-0.7-8.3-0.2-12.2c0.2-2,2.2-3.8,4-6.8
		C200.8,136.6,200.8,142.9,200.8,151.7z"/>
	<path fill="none" d="M390.7,170.9c-4.3-1.2-8.6-2.5-12.9-3.6c0.8-3,0.8-3,19.9,0.7C394.7,169.2,392.7,170.2,390.7,170.9
		C390.5,171.1,390.7,170.9,390.7,170.9z"/>
	<path fill="none" d="M193,48.8L193,48.8c2.5-3.3,4.5-7.4,7.6-9.9c3.6-2.8,6.5-0.5,7.6,4.6c-2.6-1-4.5-1.8-6.3-2.5
		C198.5,42.8,200.3,51,193,48.8z"/>
	<path fill="none" d="M171.5,203.2c1.5,0.7,5-1.3,3.6,3.3c-0.5,1.5,3.8,4.3,6.1,6.8c-1.3,1.2-2.5,2.2-4.3,3.5
		c-2.5-4-4.8-7.4-6.9-11.1C169.9,205.3,171.2,204,171.5,203.2C171.7,203,171.5,203.2,171.5,203.2z"/>
	<path fill="none" d="M207.2,238.1c-6.9,5.5-8.3,5.1-16-4.8c2.2-0.8,4.1-1.5,7.1-2.5c-0.8,2-1.2,3-1.8,4.1c1.7,0.2,3.1,0.2,5.3,0.3
		c-0.7,1.2-1,2-1.7,3.3C202.1,238.6,203.8,238.4,207.2,238.1z"/>
	<path fill="none" d="M383.6,87c-4,3-7.8,6-11.9,8.8c-0.7,0.5-2,0-3.1-0.2c0.2-1,0-2.8,0.7-3.1c4.3-2.5,8.8-4.8,13.2-7.3
		C382.8,85.9,383.3,86.4,383.6,87z"/>
	<path fill="none" d="M372.3,203.2c-0.2,1.3-0.3,2.6-0.7,4.3c-2.8-1.7-6-3.1-8.8-5c-0.8-0.7-1-2.3-1.5-3.5c1.3-0.3,3.1-1.3,4-0.8
		C368,199.5,370.2,201.5,372.3,203.2L372.3,203.2z"/>
	<path fill="none" d="M158.8,127.5c-3.8-1.8-3.8-1.8-1.2-13.9c0.5,0,1.2,0,1.7,0c0,1.8,0,3.8,0,5.6
		C159.1,121.9,158.9,124.6,158.8,127.5z"/>
	<path fill="none" d="M182.4,220c2.6,1.7,5.5,3.1,8.6,5.1c-1.2,1.3-2.2,2.6-3.8,5c-2.3-3-4.5-5.5-6.5-7.9
		C181.3,221.4,181.8,220.7,182.4,220z"/>
	<path fill="none" d="M161.1,111.5c-3.3-2-2.2-8.4,3.8-13.6C163.7,102.4,162.4,106.9,161.1,111.5z"/>
	<path d="M172,75.3c1,1,2.2,2.2,3.1,3.1c-1.7,0.7-3.5,1.3-5.1,2C170.7,78.7,171.3,76.9,172,75.3z"/>
	<path fill="none" d="M170,80.4c1.7-0.7,3.5-1.3,5.1-2c-1.3,1.5-2.5,3-3.8,4.5C171,82.1,170.5,81.1,170,80.4L170,80.4z"/>
	<path fill="none" d="M172,75.3c-0.7,1.7-1.3,3.3-2,5l0.2-0.2c-0.7,0.3-1.2,0.8-1.8,1.2C168.2,78.6,167.5,75.3,172,75.3z"/>
	<path d="M168.4,81.4c0.7-0.3,1.2-0.8,1.8-1.2c0.3,0.8,0.8,1.8,1.2,2.6v-0.2c-1.2,0.5-2.2,0.8-3.3,1.3
		C168.2,83.2,168.2,82.4,168.4,81.4z"/>
	<path fill="#FFFFFF" d="M168.2,84c1.2-0.5,2.2-0.8,3.3-1.3C170.3,83.2,169.2,83.7,168.2,84z"/>
	<path d="M288,189.4c0.7,4.5,1.3,8.8,2,13.2c-0.2,0.2-0.3,0.2-0.5,0.3c-1.5-3.5-3.1-6.8-5.3-11.7c-1.7,5.8-3.1,10.3-5.1,17
		c-6-6.9-10.9-12.6-15.9-18.4c-3.3-3.8-4.6-9.1-11.2-10.3c-3.1-0.7-6-6-7.6-9.8c-3-6.1-5-12.9-8.1-19c0.7,2.6,1.3,5.3,2,7.9
		c-2.2-3.6-8.1-5.5-5.1-11.4c1.2-2.5,1.8-5.3,1.8-8.1c-0.3-12.1-1.2-24.2-0.3-36.4c0.2,2.8,0.5,5.5,0.7,8.3c0.2-7.4,4.5-15.2-1.7-22
		c2.8-4.3-0.3-8.6-0.3-12.6c0.2-5.8,3.5-11.4,5.5-17.2c0.2,0.8,0.2,1.8,0.3,2.6c0,1.2,0.2,2.5-0.3,3.5c-4.1,9.3-3.3,11.9,5.1,17.4
		c1.2,0.7,2.2,2,2.6,3.1c5,13.1,9.8,26.1,14.6,39.2c2,5.5,3.8,11.1,5.8,16.7c0.5-3.3-0.3-6.1-1.2-9.1c-3.5-11.6-6.8-23.2-10.3-34.7
		c4.1,2.8,8.3,5.8,12.4,8.6c-0.3,2.6-0.5,5.3-0.8,7.9c-0.3,1.5-0.8,3-1.2,4.5c0.5,0.8,0.8,1.8,1.3,2.6c0.7,2.2,1.5,4.5,2.2,6.6
		c0.7,0.5,1.5,1.2,2.2,1.7c2.8,1,5.5,2.2,8.3,3.1c0.2-0.3,0.3-0.8,0.7-1.2c1,1.7,2,3.1,3,5c-1-5.8-1.8-11.2-2.8-16.5
		c2.2,5.6,7.4,9.8,7.1,16.4c0,0.5,2,0.8,2.5,1.5c1,1.3,2.5,3.6,2,4.3c-3.6,5.3,0.8,12.1-3.8,16.7c-0.3-0.5-1.2-1.3-2.5-2.8
		c0.8,4.1,1.7,7.3,2.3,10.4c-0.3,0.2-0.8,0.3-1.2,0.3c-1-1.5-2-3-4.1-6c1.7,6.3,2.8,10.6,4.5,16.7c-2.2-1.7-3-2.2-3.6-2.8
		c-0.3,0.2-0.5,0.3-0.8,0.5c1,2,2,3.8,2.8,5.8l-0.2-0.2c-0.3,1.3-0.8,2.5-1.5,4.8c-3.5-9.6-6.6-18.2-9.8-27c-0.5,0.2-1,0.3-1.5,0.5
		c2.5,7.4,5.5,14.7,7.6,22.3c1.2,4.1,3.1,6.8,7.8,6.9L288,189.4z"/>
	<path d="M302.9,121.1c1.2,2.6,2.3,5.3,3.6,7.9c0.5-0.2,1.2-0.3,1.7-0.5c-0.7-3.5-1.5-6.8-2.3-11.2c1.2,1.3,1.8,2.2,3.8,4.5
		c-1.2-6.5-2.2-11.2-3.1-16.7c1.2,2.2,2.2,4,3.5,6.3c2.3-12.6,4.5-24.3,6.8-36.2c0.3,0,0.8,0.2,1.2,0.2c-0.5,8.6-0.5,17.2-1.8,25.5
		c-1.3,8.6-4.1,16.9-6,25.5c-2.5,12.4-4.8,25-6.6,37.6c-0.3,2.6,1.5,5.8,2.5,9.8c-1.8-1.3-2.5-1.8-4.3-3.1
		c-0.5,10.3-1,19.4-1.5,28.3c-0.5,0.2-1.2,0.3-1.7,0.5c-0.5-2-1.5-4.1-1.2-6c2.3-15.6,4.1-31.1,7.4-46.3c2-9.1,0.3-17-3.3-25.3
		C301.9,121.4,302.4,121.3,302.9,121.1z"/>
	<path fill="none" d="M255.2,98.3c3.5,11.6,6.8,23.2,10.3,34.7c0.8,2.8,1.7,5.8,1.2,9.1c-2-5.6-3.8-11.1-5.8-16.7
		c-4.8-13.1-9.8-26.1-14.6-39.2c-0.5-1.2-1.5-2.5-2.6-3.1c-8.4-5.5-9.3-8.1-5.1-17.4c0.5-1,0.2-2.3,0.3-3.5c1.3,1.7,2.6,3.3,4.6,5.6
		c0-2.3,0-3.6,0-5c3.1,5.1,5,10.8,7.3,16c1,2.5,3,4.5,4.5,6.6C253.1,89.7,252.9,94,255.2,98.3z"/>
	<path d="M320.4,199.7c-4.6,2.2-6.5,5.8-6.5,10.8c0,4.5-0.5,8.8-0.7,13.2c-0.5,0-1.2,0-1.7-0.2c2-26.1,4.1-52.4,6.1-78.6
		c4,8.8-1,19,5.5,27.1c0.7,2.3,1.5,4.5,2.2,6.8c5,3,5.6,7.1,3.5,12.1l0.2-0.2c-0.3-7.6-6-8.4-13.2-10.4
		C317.6,187.6,318.9,193.7,320.4,199.7z"/>
	<path d="M328.8,190.9c7.1,1.8,2.2,7.1,2.8,10.9c-0.5-1.2-1-2.5-2.3-5.3c1,8.8,1.8,15.7,2.6,22.8c-3.3-3.3-6.6-5.5-8.3-8.6
		c-1.8-3.3-2.5-7.4-3.5-11.2C323.2,196.7,326.2,193.7,328.8,190.9L328.8,190.9z"/>
	<path fill="none" d="M266.8,114.8c0.3-2.6,0.5-5.3,0.8-7.9c6-1.8,6.9,3.1,9.1,6.5c1.5,2.3,2.6,5,3.8,7.4c0.8,5.3,1.8,10.8,2.6,16.5
		c-1.2-1.8-2-3.3-3-5c-0.2,0.3-0.3,0.8-0.7,1.2c-2.8-1-5.5-2.2-8.3-3.1c1.3-1.3,2.6-2.6,4.1-4.1c0.5,0.5,1.7,1.5,4,3.6
		c-1.3-4-2.2-6.5-3.3-9.9c-2.6,3-4.6,5-6.5,6.9c0.2-4.1,0.7-8.3,0.2-12.2C269.6,112.2,267.8,111.8,266.8,114.8z"/>
	<path d="M333.3,134.7c-2.5-0.2-5-0.3-9.1-0.5c2.5-7.4,4.6-14.4,6.9-21.5C336.9,116.1,337.6,124.1,333.3,134.7z"/>
	<path fill="none" d="M329,190.7c-2.8,3-5.8,6-8.6,8.8l0,0c-1.5-6-2.8-12.1-4.6-19.4C323,182.3,328.7,183.1,329,190.7z"/>
	<path d="M325.4,178.8c-0.7-2.3-1.5-4.5-2.2-6.8c-0.5-3.6-1-7.3-1.7-10.9c0.3-0.2,0.7-0.5,1-0.7c2.2,2.3,4.1,4.6,6.6,7.3
		c0.7-2.6,1.3-5.3,2-8.1C335.3,164.9,332.5,173.7,325.4,178.8z"/>
	<path d="M255.2,85.4c-1.5-2.2-3.5-4.3-4.5-6.6c-2.3-5.3-4.1-10.9-7.3-16c0,1.3,0,2.8,0,5c-1.8-2.3-3.1-4-4.6-5.6
		c-0.2-0.8-0.2-1.8-0.3-2.6c-0.3-2.2-0.5-4.3-0.8-6.5c0.5-0.2,0.8-0.3,1.3-0.5c0.8,2,1.2,4.8,2.5,5.6
		C252.4,64,249.4,76.9,255.2,85.4z"/>
	<path d="M305.7,55.4c-1.8-3-3.5-6-6-9.9c6.5,0.5,11.4,0.8,15.1,1.2c-1.7,2.3-3.8,5.1-5.8,7.9C307.7,54.8,306.7,55.1,305.7,55.4z"/>
	<path d="M313.3,238.1c-2.2,0.7-4.8,2.5-6,1.8c-1.8-1-3-3.8-4-6.1c-0.3-0.8,0.7-3.1,1.3-3.3c1-0.3,2.6,0.5,3.6,1.3
		C309.8,233.4,311,235.2,313.3,238.1z"/>
	<path d="M305.7,55.4c1-0.3,2.2-0.7,3.1-1c2,0.8,5.6,1.3,5.8,2.3c0.3,2.3-1,5-1.8,7.4c-0.7,0-1.2,0-1.8,0
		C309.1,61.4,307.3,58.4,305.7,55.4z"/>
	<path d="M255.7,72.3c-0.3-3.3-0.7-6.8-1-10.1c0.3,0,0.5,0,0.8-0.2c2.6,6.6,5.1,13.4,7.8,20c-0.7,0.5-1.3,0.8-2,1.3
		c-0.7-1.2-1.5-2.3-2.2-3.5C258,77.3,256.9,74.8,255.7,72.3z"/>
	<path fill="none" d="M334.6,69.3c-1.8,2.2-3.6,4.3-5.8,6.8c2,0,3.8,0,6,0c-0.5,1.8-1,3-1.5,4.6c-2.6-1.2-5-2.3-7.3-3.3
		c-0.7-5.3,1.3-7.9,6.6-8.3C333.3,69,334,69.2,334.6,69.3z"/>
	<path d="M255.7,72.3c1.2,2.5,2.3,5.1,3.5,7.6c0.3,3.5,0.8,6.8,1.2,10.3c-0.3,0.2-0.7,0.3-1,0.3c-2-5.3-4-10.6-5.8-16
		C253.4,74.1,254.9,73,255.7,72.3z"/>
	<path d="M281,232.1c2.6,2,5.5,3.8,7.9,6c0.2,0.2-1,2.2-1.7,3.3c-2.8-2.2-5.5-4.5-8.3-6.6C279.7,233.8,280.4,232.9,281,232.1z"/>
	<path d="M285.5,182.1c1.3,0.7,3.3,1,3.6,2c1.8,5.1,3.1,10.4,4,16c-1.8-3.6-3.6-7.1-5.3-10.8l0.2,0.2
		C287.1,187.1,286.3,184.5,285.5,182.1L285.5,182.1z"/>
	<path d="M299.7,123.6c1.8,5.1,3.6,10.1,5.3,15.2c-0.7,0.2-1.2,0.3-1.8,0.7c-1.8-5.1-3.6-10.1-5.3-15.2
		C298.6,123.9,299.1,123.7,299.7,123.6z"/>
	<path d="M291.1,101.4c2.3,2,4.6,4.1,7.3,6.6c-1.3,0.5-4.1,2.2-4.5,1.7c-1.8-2.2-3.1-5-4.6-7.6C290,101.9,290.5,101.7,291.1,101.4z"
		/>
	<path d="M291,174.7c1.5,5.8,3,11.4,4.5,17.2c-0.3,0.2-0.7,0.2-1,0.3c-2-5.6-3.8-11.2-5.8-16.9C289.6,175.2,290.3,175,291,174.7z"/>
	<path d="M200.6,216.4c2-1.8,3.3-3.5,5-4.5c2-1.2,4.3-1.8,6.5-2.6c0.3,2.3,1.8,5.3,0.8,6.6c-1.3,1.8-4.5,3.1-6.9,3.5
		C204.4,219.5,202.8,217.5,200.6,216.4z"/>
	<path d="M184.6,115.6c-3-3.3-5.1-5.6-6.8-8.3c-0.3-0.5,2.2-3.5,2.3-3.3c3.5,1.7,6.9,3.8,10.3,5.6
		C188.9,111.2,187.4,112.8,184.6,115.6z"/>
	<path d="M194.5,186.8c2.8,3.6,6.1,6.6,5.6,7.9c-1.2,2.6-4.1,6-6.6,6.3c-2,0.2-4.5-3.6-6.8-5.8C188.9,192.9,191.2,190.6,194.5,186.8
		z"/>
	<path d="M395.5,155.5c-2.2-0.3-4.5-0.5-6.6-1s-4.3-1.5-6.5-2.2c1-2,1.5-5.1,3.1-6c2.2-1,6.1-1.5,7.8-0.2c2.2,1.7,3,5.3,4.3,7.9
		C397,154.7,396.2,155.2,395.5,155.5z"/>
	<path fill="none" d="M285.5,182c0.8,2.5,1.7,5.1,2.6,7.6c-4.5-0.2-6.5-2.6-7.8-6.9c-2.2-7.6-5-14.9-7.6-22.3c0.5-0.2,1-0.3,1.5-0.5
		c3.1,8.6,6.3,17.2,9.8,27C284.7,184.5,285.2,183.3,285.5,182z"/>
	<path d="M266.8,114.8c1-3,2.8-2.6,3.1,0c0.5,4,0,8.1-0.2,12.2c-0.2,0.5-0.3,1.2-0.7,1.7c-0.7-2.2-1.5-4.5-2.2-6.6
		c-0.5-0.8-0.8-1.8-1.3-2.6C266,117.8,266.3,116.3,266.8,114.8z"/>
	<path d="M269.1,128.5c0.2-0.7,0.3-1.2,0.7-1.7c1.8-2,3.6-4,6.5-6.9c1.2,3.6,2,6,3.3,9.9c-2.3-2.2-3.5-3.1-4-3.6
		c-1.3,1.3-2.8,2.6-4.1,4.1C270.6,129.7,269.8,129.2,269.1,128.5z"/>
	<path fill="#FFFFFF" d="M265.6,119.3c0.5,0.8,0.8,1.8,1.3,2.6C266.5,121.1,266,120.3,265.6,119.3z"/>
</g>
</svg>
