<svg xmlns="http://www.w3.org/2000/svg"  viewBox="0 0 48 48" width="48px" height="48px"><path d="M1.989 23.987c0-12.144 9.857-22 22.001-22s22.001 9.856 22.001 22c0 11.125-8.273 20.331-18.997 21.797v-15.78h5.001l1-6h-5v1.5c0 .276-.225.5-.5.5-.276 0-.5-.224-.5-.5l-.001-5.5c0-1.653 1.344-3 3.001-3h3v-6h-3c-4.968 0-9.001 4.031-9.001 9.001v3.999h-4.999v6h4v-1.5c0-.275.224-.5.5-.5.275 0 .5.225.5.5l-.001 17.281C10.265 44.323 1.989 35.117 1.989 23.987zM10.971 10.666c1.156-1.359 3.019-2.088 5.184-2.705.483-.167.723-.423.8-.759.124-.537-.213-1.076-.749-1.2-.136-.031-.269-.032-.503.02-2.889.573-5.295 2.856-5.608 4.215-.06.26.107.539.376.6C10.662 10.882 10.855 10.809 10.971 10.666zM23.982 46.998c9.941 0 18.011.225 18.011.501 0 .276-8.069.501-18.011.501-9.941 0-18.011-.225-18.011-.501C5.971 47.223 14.041 46.998 23.982 46.998z"/></svg>