<svg xmlns="http://www.w3.org/2000/svg"  viewBox="0 0 48 48" width="48px" height="48px"><path d="M23.991 47.005c8.836 0 16.008.225 16.008.501 0 .276-7.172.501-16.008.501-8.836 0-16.008-.225-16.008-.501C7.983 47.23 15.155 47.005 23.991 47.005zM3.983 41.658V6.339c0-1.291 1.049-2.34 2.34-2.34h35.321c1.291 0 2.34 1.049 2.34 2.34v35.319c0 1.291-1.049 2.34-2.34 2.34H6.323C5.033 43.998 3.983 42.949 3.983 41.658zM29.998 28.998l-.004-7.976-1.001-.504.005 7.48c0 4.623-3.491 8.431-7.972 8.943.317.039.641.057.971.057C26.411 36.998 29.998 33.415 29.998 28.998zM27.998 27.998l-.004-9.385c1.781 1.463 3.939 2.385 6.001 2.385v-4c-1.169 0-2.691-.681-3.983-1.943-1.288-1.259-2.017-3.769-2.017-5.057h-4l.003 18.001c0 2.207-1.793 3.999-4.001 3.999-2.209 0-4.001-1.792-4.001-4 0-2.207 1.792-4 4.001-4v-4c-4.416 0-8.001 3.584-8.001 8 0 4.417 3.585 8 8.001 8C24.411 35.998 27.998 32.415 27.998 27.998zM17.995 28.998c0-2.207 1.792-4 4.001-4v-4c-.339 0-.673.021-1.001.063l.001 2.937c0 .552-.449 1-1 1-1.657 0-3.001 1.347-3.001 3 0 1.013.501 1.909 1.272 2.452C18.091 30.001 17.995 29.511 17.995 28.998zM35.995 21.998v-4c-.312 0-.649-.048-1-.143v3.143c0 .36-.191.675-.475.851C35.013 21.947 35.506 21.998 35.995 21.998zM29.995 10.998h-.879c.237 1.136.809 2.577 1.595 3.343.087.087.175.168.263.247C30.339 13.35 29.995 11.885 29.995 10.998zM7.923 7.934c2.133-.213 5.756-.895 5.713-1.348-.059-.58-4.799-.615-6.709-.576C6.377 6.049 5.958 6.521 5.993 7.066c0 .019-.004.916-.003.933-.033 2.013.024 5.591.587 5.647C7.029 13.69 7.71 10.067 7.923 7.934z"/></svg>