<svg xmlns="http://www.w3.org/2000/svg"  viewBox="0 0 48 48" width="48px" height="48px"><path d="M23.994 47.002c8.836 0 16.008.225 16.008.501s-7.172.501-16.008.501c-8.836 0-16.008-.225-16.008-.501S15.158 47.002 23.994 47.002zM4.002 33.989V13.995c0-5.521 4.481-10.003 10.003-10.003h19.996c5.521 0 10.003 4.481 10.003 10.003v19.993c0 5.521-4.481 10.003-10.003 10.003H14.005C8.483 43.991 4.002 39.51 4.002 33.989zM6.002 34.989V14.995c0-4.968 4.033-9.003 9.003-9.003h19.996c2.229 0 4.271.813 5.844 2.159-1.652-1.932-4.107-3.159-6.844-3.159H14.005c-4.969 0-9.003 4.035-9.003 9.003v19.993c0 2.74 1.224 5.195 3.157 6.845C6.814 39.262 6.002 37.219 6.002 34.989zM40.005 33.915V14.069c0-3.355-2.724-6.079-6.079-6.079H14.079c-3.356 0-6.079 2.724-6.079 6.079v19.847c0 3.356 2.723 6.079 6.079 6.079h19.847C37.281 39.994 40.005 37.271 40.005 33.915zM10.001 33.915V14.069c0-2.249 1.828-4.079 4.079-4.079h19.847c2.249 0 4.079 1.829 4.079 4.079v19.847c0 2.251-1.829 4.079-4.079 4.079H14.079C11.829 37.994 10.001 36.166 10.001 33.915zM32.006 23.991c0-4.416-3.585-8-8.001-8-4.417 0-8.001 3.584-8.001 8 0 4.417 3.584 8 8.001 8C28.421 31.991 32.006 28.409 32.006 23.991zM18.003 23.991c0-3.311 2.689-6 6.001-6 3.311 0 6.001 2.689 6.001 6 0 3.312-2.691 6-6.001 6C20.693 29.991 18.003 27.303 18.003 23.991zM34.005 14.991c0-.552-.449-1-1.001-1s-1.001.448-1.001 1c0 .552.449 1 1.001 1S34.005 15.543 34.005 14.991z"/></svg>