<?xml version="1.0" encoding="utf-8"?>
<!-- Generator: Adobe Illustrator 23.0.1, SVG Export Plug-In . SVG Version: 6.00 Build 0)  -->
<svg version="1.1" id="Layer_1" xmlns="http://www.w3.org/2000/svg" xmlns:xlink="http://www.w3.org/1999/xlink" x="0px" y="0px"
	 viewBox="0 0 275.8 275.1" style="enable-background:new 0 0 275.8 275.1;" xml:space="preserve">
<style type="text/css">
	.st0{fill:none;}
	.st1{fill:#FEF9C3;}
</style>
<g>
	<path class="st0" d="M0,275.5C0,183.7,0,91.8,0,0c91.8,0,183.7,0,275.5,0c0,91.8,0,183.7,0,275.5C183.6,275.5,91.8,275.5,0,275.5z
		 M85.9,117.5c-0.4,2.2-2.3,4.1-1.6,7.2c1.4-2.2,2.1-4.1,2.1-6.2c1.4,0,1.6,1.2,1.3,2c-0.6,1.3-0.1,2.8-0.9,4.2c1.9,0,3.5,0.2,5-0.1
		c2.1-0.4,4.8,0.2,5.9-2.1c0.9-1.7,2.1-3,3.4-4.3c2.5-2.3,4.5-5.1,7.5-6.8c2.5-1.4,3.4-3.6,3.4-6.5c0-2-1.7-2.2-2.5-3.3
		c-2.7-3.8-6.9-4.6-11.1-5.1c-0.9,0-1.9-0.1-2.8-0.1c-0.9-1-1.8-0.4-2.5,0.1c-2.3,1.8-4.3,3.9-4.7,7.1c0,1,0,2,0,3
		c1.4-0.1,1.2-1.4,1.6-2.1c0.8,0.7-0.7,2.3,1.2,2.4c0.3,0.3,0.7,0.7,1,1c-1,0.9-1.6,2.8-3.5,1.2c-0.3,1.8,0.9,3.8-1.1,5
		c-0.6-0.5,0.2-1.5-0.6-1.9c0-1.1,0-2.2,0-3.3c-0.5,1.4-0.5,2.8-0.5,4.3C86.3,114.7,86.1,116.1,85.9,117.5z M65.8,168
		c-0.9,0-1.7,0.4-2.5,0.8c0.6,1,1.3,1.8,2.5,1.7c0.9,0.6,1.7,1.5,2.9,0.5c2.2,0.3,4.1-0.8,6.2-1c2.2-0.2,3.8-1.6,5.6-2.5
		s3.1-2.6,5.2-3c-2.4,1.3-2.1,4-1.9,5.7c0.2,1.8,0.6,4.6,3.5,4.7c-0.1,1.4-1.8,1.6-1.3,3c1.6-0.5,3.2-0.6,3.8-2.9
		c0.3-1,0.9-2.6,2.1-3.2c2.1-1,4.3-1.8,6.6-0.5c-0.7,4.2,1.8,5.8,5.3,6.7c0.2-0.6-0.4-1.5,0.5-2c0.6-0.3,1.2-0.6,1.3-1.3
		c4,2.3,7.4,5.8,13.3,4.4c-7.9-5.5-6.6-13.1-5.3-20.6c0,1.8,0,3.5,0,5.3c0.4-0.2,0.4-0.6,0.5-0.6c2.1-0.7,4.2-0.6,6.4-0.7
		c0.5,0,1.3,0.2,1.5,0.6c1.1,3.2,2.8-1.4,3.8,0.5c0.5-0.8-0.5-1.3-0.1-2c0.7,0.2,1.1,0,1.3-0.8c0.2-0.9-0.4-1.2-1-1.6
		c-3.5-2.3-7.8-3.3-10.9-6.3c-0.8-0.8-0.3,1.1-1.1,0.2c0.4-3.5,1.1-7.1,0-11.1c0.6,0.5,0.9,0.9,1.4,1.3c0.8-1.7,2.4-2.5,3.6-3.5
		c1.7-1.4,2.2,1.5,3.6,2c0.8-2.1,0.3-2.9-1.7-3c-1.3-2,3.1-1.7,1.5-3.9c-0.6-0.1-1.2-0.2-1.9-0.4c-0.8,1-1.1,2.2-1.1,3.3
		c-2.7,0.8-3.2-1.3-4.1-2.9c-0.2-0.4-0.2-0.9-0.8-1.1c-2.8-1-5-4-8.5-2.4c-0.1,0-0.3-0.1-0.4-0.1c-3.6-2-7.6-1.2-11.4-2
		c-1.1-0.2-2.8,0.2-2.5,2.2c0.2,1.6-0.2,3.2,0.3,4.7c-1.6,0.9-2.9,2.2-4,3.6c-4.1,5.3-7.4,11-10.6,16.9c-2.2,4.1-4.6,8.1-9,10.1
		C67.4,167.1,66.6,167.6,65.8,168z M199.5,97.8c-0.9-1.2-1.9-2.4-1.3-4c0.7,0.1,1.5,0.5,2.1-0.2c-0.6-1.3-1.7-1.9-2.8-2.5
		c-0.5-1.4-1-2.9-1.4-4.3c-0.1-1.6-1.2-2.6-1.9-3.8c0.6-1.9-0.1-3.8-1.9-3.9c-2-0.1-2.8-1.7-4.8-2.3c1.9-0.6,3.4,0.7,5.1-0.6
		c-2.2-0.5-4.1-0.2-5.9-0.2c-0.5-0.8,0.2-1.3,0.3-1.9c0.6-1.7,0.1-2.9-0.9-4.2c-1.2-1.5-1.5-3.4-2.1-5.3c-5.1-0.1-8.4-3.8-12.3-6.5
		c0.7-1,0.8-2.5-0.5-2.7c-2.4-0.3-4-2.1-6.3-2.4c-3.3-0.4-6.5-2.1-10.1-1.3c-0.4-0.5-0.3-1.4-0.9-1.9c-0.3,0.6-0.6,1.2-0.9,1.9
		c-0.5-0.9-1.6-1.4-1.3-2.7c0.1-0.6,0.3-1.2,0.4-1.9c1.1,0,1.2,1.3,2.3,1.7c-0.2-1.2,1.3-2.5-1.1-3c-0.6-0.1-1.5,0.5-2-0.3
		c0-1.4-0.9-1.1-1.7-0.9c-1.8,0.4-3.5,1.1-5.4,0.9c-0.6-0.5-1.3-1-1.9-1.4c-0.1-0.2-0.3-0.3-0.4-0.5c-0.5-0.5-0.4-1.4-0.9-1.6
		c-4.5,0.3-8.2,2.1-11.6,4.4c-0.4,0.2-0.8,0.6-1.3,0.5c-0.9-2.3-1-2.3-4.4,0.4c-1.6-1.3-2.7-0.9-3.4,1.1c-1.6-0.5-2.8,0.9-4.1,0.8
		c-1.5-0.1-1.9,0.4-2.1,1.6c-1.1,0.1-1.7,0.8-1.9,1.9c-0.5,0.5-0.9,1-1.4,1.4c-1.3-0.6-2.3-0.5-3,0.9c-0.3,0.7-0.8,1.3-1.3,1.9
		c0.2,2-0.5,3.8-1.2,5.7c-1.3,3.5,0.7,7.7-2.1,11.1c-0.1,0.1-0.1,0.5,0,0.7c0.6,1.4,0.2,2.5-0.7,3.6c-0.3,0.4-0.3,0.9,0.1,1.3
		c0.2-0.1,0.4-0.2,0.6-0.3c2.9-3.7,6.4-6.5,11-7.9c3.4-1,6.9-1,10.5-0.4c3.5,0.6,7.1,0.4,10.7,0.7c3,0.2,6,0.3,9,0.3
		c3.1,0,6.1,0.5,8.8,2.1c1.9,1.1,4,1.7,5.8,2.9c2.6,1.7,5.7,2.6,7.9,5.1c1.3,1.5,3,2.6,3.3,4.8c0,0.3,0.1,0.7,0.3,0.9
		c2.2,2.2,3,5.8,1.5,8.4c-1.1,1.8-1,3.6-1.1,5.4c-0.1,1.2-0.8,2.4-0.5,3.5c0.6,2.3,1.6,4.5,2.3,6.7c0.3,1,1.9,0.8,1.9,2
		c-0.1,2.3,0.1,4.5-0.3,6.8c-1.2,7.3-2.7,14.6-2.2,22.1c0.1,1,0.5,2.5-1.2,3.6c-1.5,1-1.9,3.3-2,5.2c-0.1,1.6,0.6,3.2,2.3,4
		c2.7-4,2.9-8.6,3.6-13.2c0.9,0.3,1.7,0.8,2.6,0.2c0-0.8-0.7-1.5,0-2.7c2,0.8,3.9-1.1,5.9-0.7c2.2,0.4,4.4,0.2,6.6,0.3
		c0.8,0,1.9-0.1,1.9-1.3c0-1.5,1-2.6,1.4-3.9c1.4-2.9,3.2-5.6,2.5-9c0.5-0.6,1,2,1.4,0c1.1-1.2,1.1-2.8,1.4-4.3
		c1.1-2.6,2.9-5.1,1.4-8.1c2.2-2.6,3-5.3,0.5-8.2c-0.3-0.3-0.6-0.6-1-1c-0.5-0.9-1-1.8-1.5-2.7c-0.5-0.2-0.9-0.4-1.4-0.6
		c-0.2-1.4,1.4,0.2,1.4-0.8c0.6-0.2,1,0.3,1.4,0.5c0.9,0.9,0,2.9,2.2,3.3C199.9,101.4,201.9,99,199.5,97.8z M85.4,190.1
		c1,1.3,2,2.5,3,3.8c0.8,2.1,1.8,4.2,2.2,6.3c0.5,2.6,1.9,5,1.8,7.7c-0.1,1.1,0.7,1.5,1.7,0.7c0.4,1.2,1.2,2,2.1,2.5
		c-0.4,2.2-0.7,4.2-1.1,6.2c-0.4,1.5-1.9,1.6-2.8,2.2c-0.5,1.2,1.5,1.6,0.6,2.8c-0.4-0.2-0.8-0.4-1.4-0.8c0.6,2.8,3,4,4.5,5.8
		c0.2,0.6,1,0.8,0.9,1.6c-0.4,0.1-0.8,0.3-1.2,0.5c0.4,0.5,0.7,1.1,1.6,1.1c0.2-1.2,0.9-1.7,2.2-1.4c-0.5,1.4-1,2.7,0.5,3.9
		c0.7-1.6,1.1-2.8,3.7-1.9c3,1.1,4.3-0.5,4.3-3.8c0-1.7-0.2-3.3-0.1-5c0.2-7.8,0.9-15.6,1.1-23.4c0.1-3.7,0-7.3,0-11
		c0-1,0.2-2,0-2.5c-1-0.6-0.6,0.6-1.3,0.4c-0.1-0.7-0.2-1.4,0.1-2.1c0.3,0.1,0.5,0.8,0.9,0.5c0.6-0.6,0.4-1.4,0.1-2.2
		c-2.2,0-1.6,1.7-1.8,3c-0.6-0.6-1.4,0.4-2.3-0.5c0.7-0.3,1.7-0.2,1.8-1.2c-0.2-0.6-0.7-1.1-1.3-1.3c-1.7,0.8-3.3,2.1-5,2.2
		c-2.2,0.1-2.9,1-3.1,3c-0.9,0-1.9,0.1-2.8,0c-1.2-0.1-2.8,0.7-3.7-0.9c-1.6-1.3-2.8,0.1-4.2,0.5c-0.7-0.2-1-1.3-1.9-1
		c-0.5-1.1-1.6-1.7-2.4-2.5c-1.7-1.6-2.3-3.9-3.7-5.8C79.8,182.2,82.5,186.2,85.4,190.1z M204.3,262.1c-0.7-1.1-1.7-1.8-2.9-2.4
		c-0.7-0.8-1.3-1.8-2.4-2.3c-0.6-0.5-1.3-1-1.9-1.6c-0.6-0.5-1.3-1-1.9-1.4c-0.8-1.2-2-1.9-3.3-2.4c-1.2-1.6-3-2.5-4.4-3.8
		c-3.5-3.1-7.9-5.3-9.7-10.3s-4.2-9.8-6.5-14.7c-1.4-2.9-2.1-6.4-5.5-7.8c-1.5-0.6-2.1-1.7-2.5-3c-0.3-1.2-0.7-2.4-2.2-2.8
		c-0.4,1.7-1.1,3-2.5,4.1c-2.2,1.8-4.8,2.8-7.3,4.2c-5.2,3-10.9,4.9-16.3,7.3c0.2,0.1,0.4,0.2,1,0.5c-2,0.2-3.3,1.2-4.8,1.8
		c-2,0.9-3.5,2.4-5.3,3.5c-5,2.9-9.9,5.9-14.6,9.2c-0.6,0.4-1,0.7-1,1.4c0.1,4.3-0.1,8.5-0.5,12.5c2.3,0.9,4.6,1.4,6.3,2.7
		c6.1,4.8,11.3,10.5,16.1,16.6c1,1.3,2,1.7,3.5,1.7c11.3,0,22.6,0,33.9,0c11.8,0,23.5-0.1,35.3-0.1c2.1,0,4.1,0,6.2,0
		c2.8,0,5.6,0,8.8,0c-0.6-0.5-0.8-0.7-1.1-0.9c-0.5-0.6-1.2-0.9-1.9-1c-0.5-0.5-1-1-1.4-1.4c-0.7-1.4-2.2-1.6-3.3-2.4
		C209.6,266.7,207.4,263.9,204.3,262.1z M73,257.9c-2.1,5.7-4.2,11.3-6.3,17.1c0.9,0,1.7,0,2.5,0c0.6,0,1.3,0,1.9,0
		c1.1,0.1,2.2,0.2,3.3-0.1c0-0.6,0.1-1.1,0.1-1.6c0.9,0.3,0.1,1.4,0.8,1.8c9.7,0,19.4,0,29.2,0c-0.2-3.4,3.5-5.4,2.4-9.2
		c3,1.3,1.1,4.2,2.7,5.6c0.6-1,0.8-2.4,2.5-1.8c-0.1-0.7-0.3-1.4-0.3-2.1c0-1.3-1.8-1.4-1.7-2.8c-2-0.2-3.8-0.7-5.4-2
		c-1-0.8-1.5-2.6-3.3-1.1c-0.3-2-0.3-1.9-1.8-2.1c-1.2-0.2-2-0.9-2.3-2c-0.5-1.7-0.4-3.4,1-4.8c0.8-0.8,1.6-1.1,2.7-0.6
		c2,0.8,4,1.3,6.1,2c1-3.2,0.6-10.6-0.6-11.9c-0.2,1.3-1.4,1.8-2.1,2.6l0.1,0.1c-0.9-1.6-2.3-0.7-4.2-0.2c2.6-1.9,1.3-2.8-0.1-3.5
		c0.7-0.4,1.8,0.1,1.9-1.3c-1.6-0.1-2.8-1.1-4-1.9c-0.9,0.4-0.3,1.8-1.6,1.8c-0.2-1.3-0.1-3-2.3-2.7c0,1,0,2.1,0,3.1
		c0,0.6,0,1.4-1,0.9c-0.4-1.6-0.1-3.3-0.8-4.8c-0.2-0.9,0.3-2-0.6-2.9c-1.4,2.1-2.3,4.2-2.8,6.5s-1.1,4.6-3.4,6
		c-2.8,2-5.2,4.6-7.7,7c-0.6,0.5-0.6,1.8-1.8,1.6c0-0.5-0.1-0.9-0.2-1.8c-1.3,1.9-2.4,3.4-3.4,4.9C71.9,257.6,72.5,257.8,73,257.9z
		 M144.9,127.8c-1.6-1.4-4.1-1.5-5.4-3.5c2.9-1.9,9.2-1.7,12.4,0.1c1.2,0.7,2.3,2.2,4.3,1.4c-0.6-2-1.2-4,1.3-5.2
		c0.3-0.2,0.2-0.8-0.2-1.3c-0.5-0.6-0.6,0.5-1,0.2c0.5-2.9-2.1-3.9-3.6-5.4c-1.6-1.7-4-2.3-6.8-2.2c0.9,1.1,1.6,1.9,2.2,2.7
		c-3.1-1.7-6.6-2.2-10.1-3.6c0.8-0.2,1.2-0.3,1.7-0.4c-0.3-0.4-1-0.4-0.8-1.4c3.3,0.7,6.6,1.4,9.9,2.1c0.4-2.3,3.7-3.9,5.8-2.9
		c2.4,1.1,2.4,1.1,4.6,0.4c-1.8-4.7-6.3-5.4-10.4-6.8c-3.9-1.3-8.3-1.1-11.9-3.6c-0.3-0.2-0.9-0.2-1.2,0c-2.2,1.6-5,0.1-7.3,1.4
		c-1.4,0.8-3,0.9-4.6,0.2c-1.2,2.3-2.7,4.1-5.3,4.6c-1,0.2-1.4,1.1-1,1.8c0.8,1.4,1.1,3.2,2.4,4.2c0.9,0.6,0.6,0.9,0.5,1.6
		c-0.4,2.4-1,5.2,0.4,7.2c1.4,2.1,2.7,4.8,5.9,5.2c0.6,0.1,1.3,0.6,1.9,0.9c1.8,1,3.6,2.5,5.5,2.8c1.8,0.3,3.7,1,5.6,1
		c2.1-0.1,4.2,0.9,6.7,0.4C145.7,128.9,145.3,128.3,144.9,127.8c1.4,0.2,3,0.6,4.6-0.6C147.7,126.8,146.2,126.9,144.9,127.8z
		 M178.6,170.5c-1.6,0.8-3.1,0.9-4.5,1.1c-2.5,0.5-5.6,0.3-7.2,3.5c-0.5,1.1-0.8,2.5-2.1,3.3c0.1-1.4-0.1-1.8-1.5-3.2
		c-0.4-0.5-0.7-1.1-1.4-1c-0.4,0-0.5,0.3-0.5,0.7c-0.2,1.1,1.3,0.4,1.4,1.2c-1,0.9-1,0.9-1.8,0.1c-2.1-2-3.2-2-4.3-0.4
		c-2-0.7-1.8-3.9-4.6-3.4c0-0.8,0.6-1.4-0.1-2c-2.1-0.3-3.8,0.9-5.8,2c-0.2-1.2-0.1-2.2-0.5-3.1c-0.1-0.1,0.3-0.4,0.3-0.6
		c1-2.5,1-2.5-2-2.9c1.5,2.4,1,4.6-0.2,6.8c-2-0.6-0.6-2.5-1.3-3.6c-4.7-1.6-4.2,3.3-6.2,5.1c-0.6-0.5-1-0.9-1.4-1.2
		c-0.8,0.2-0.5,1.1-1,1.4c-1.7-1.2-2.2-1.1-3.9,1c0.6,0.7,1.8-0.3,2.3,0.8c-1.1,0.7-2.1,1.4-2,2.3c-1.7,0.5-2.9-0.9-4.4-0.4
		c-0.3,1.2-0.5,2.2,0.8,2.7c-1.4,1-3.4-0.2-4.4,1.3c-1.2,1.7-3.3,1.9-4.8,3.2c-0.8,0.7-2.3,0.7-3.5,0c-1.5-0.9-2.2-0.5-2.1,1.3
		c0.3,8.8-0.8,17.6-0.5,26.4c0,0.6,0.1,1.3,0,1.9c-0.9,4.4-0.3,8.8,0.5,13.7c0.9-2,0-4.2,1-5.2c0.9-0.9,2.6-1.4,4.2-1.3
		c-0.4-0.9-0.6-1.6-0.9-2.2c4-0.7,9.4-4.2,9.1-6.1c2.2,0.2,4.3,1.2,6.5,0.1c-0.2-0.7-0.4-1.3-0.6-1.7c1.1-2.2,3.9-3,3.7-5.9
		c2-0.6,4.4,0.7,5.9-1.6c1.3-2.1,2.9-3.6,5.3-1.8c1.1-0.6,0.1-1.4,0.4-1.9c0.9-0.3,1.5,0.1,2.2,0.3c0.5-0.5,0.3-1.4,1.4-1.6
		c0.9-0.2,1.5-1.4,2.7-0.6c1.1-2,3.5-2.9,4.2-5.5c0.3,0.5,0.5,0.7,0.6,1c0.2,0.8-1.1,2,0.4,2.3c1.1,0.2,1.4-1.3,1.9-2.1
		c0.2-0.3-0.1-0.7,0.3-0.9c1.4,0.7,0,1.7,0.4,2.5c0.9-0.1,0.6-1.5,1.6-1.5c0.4,0.6-0.6,1-0.1,1.5c1.3,0.6,1.5-0.6,1.7-1.3
		c0.5-2.6,2.2-4.6,3-7.1c1.4-4.5,5.1-8.2,7.6-12.3C175.4,173.9,177.7,173,178.6,170.5z M190.4,153c2.4,0.3,1.8-1.8,2.4-2.8
		c1.1-1.7,1.5-3.6-0.1-5.4c-1.5-1.6-3.2-2.7-5.3-1.5c-1.9,1-5.3-0.7-5.2,3.2c-1.4-0.1,0-1.1-0.8-1.3c-1-0.1-1.5,0.6-1.9,1.4
		c3.2,2,4.3,1.8,7.2-0.6c0.9-0.7,2.3-0.9,2.7,0.7C190,148.8,190.9,150.7,190.4,153z M180.5,148.2c-1.3-0.1-1.9-1-2.5,0.2
		c-0.3,0.7-0.2,6.3,0.3,6.8c0.5,0.4,1,0.7,1.8,0.6c1.6-0.1,3.3,0.2,5,0.4c0.1-3.7,0.1-3.7-3.7-7.9c-1.2,0.4-1.3,2.3-3,2.3
		C178.8,149.7,179.2,149,180.5,148.2z M143.2,165.8c-0.1-1-0.1-2.1-1.7-2.1c-0.1,0.7-0.3,1.5-0.4,2.2
		C141.7,166.2,142.4,166.3,143.2,165.8z"/>
	<path class="st1" d="M204.8,274.9c-11.8,0-23.5,0.1-35.3,0.1c-11.3,0-22.6,0-33.9,0c-1.5,0-2.5-0.4-3.5-1.7
		c-4.8-6.1-10-11.8-16.1-16.6c-1.6-1.3-4-1.7-6.3-2.7c0.4-4,0.7-8.3,0.5-12.5c0-0.7,0.4-1,1-1.4c4.7-3.3,9.6-6.3,14.6-9.2
		c1.8-1.1,3.3-2.6,5.3-3.5c1.5-0.6,2.8-1.6,4.8-1.8c-0.6-0.3-0.8-0.4-1-0.5c5.5-2.4,11.2-4.3,16.3-7.3c2.4-1.4,5-2.4,7.3-4.2
		c1.4-1.1,2.1-2.3,2.5-4.1c1.4,0.4,1.8,1.5,2.2,2.8c0.4,1.4,1,2.4,2.5,3c3.4,1.4,4.1,4.9,5.5,7.8c2.3,4.8,4.7,9.6,6.5,14.7
		c1.8,5,6.2,7.2,9.7,10.3c1.5,1.3,3.3,2.2,4.4,3.8c0.9,5.5,2.6,10.6,6.1,15C200.2,269.7,202.5,272.3,204.8,274.9z"/>
	<path class="st1" d="M192.8,134.1c-0.4,1.3-1.4,2.4-1.4,3.9c0,1.1-1.1,1.3-1.9,1.3c-2.2-0.1-4.4,0.1-6.6-0.3
		c-2-0.4-3.9,1.5-5.9,0.7c-0.7,1.1,0.1,1.9,0,2.7c-0.9,0.6-1.7,0-2.6-0.2c-0.7,4.6-0.9,9.3-3.6,13.2c-1.7-0.9-2.4-2.4-2.3-4
		c0.2-1.9,0.5-4.2,2-5.2c1.7-1.1,1.3-2.6,1.2-3.6c-0.5-7.5,0.9-14.8,2.2-22.1c0.4-2.3,0.2-4.5,0.3-6.8c0-1.2-1.5-1-1.9-2
		c-0.7-2.3-1.7-4.4-2.3-6.7c-0.3-1.1,0.4-2.3,0.5-3.5c0.1-1.8,0.1-3.6,1.1-5.4c1.6-2.6,0.7-6.2-1.5-8.4c-0.2-0.2-0.3-0.6-0.3-0.9
		c-0.3-2.2-1.9-3.3-3.3-4.8c-2.2-2.5-5.3-3.3-7.9-5.1c-1.8-1.2-3.9-1.8-5.8-2.9c-2.7-1.6-5.6-2.1-8.8-2.1c-3,0-6,0-9-0.3
		c-3.6-0.3-7.2-0.1-10.7-0.7c-3.6-0.6-7-0.6-10.5,0.4c-4.5,1.4-8.1,4.2-11,7.9c-0.1,0.2-0.4,0.2-0.6,0.3c-0.4-0.5-0.4-0.9-0.1-1.3
		c0.9-1.1,1.3-2.2,0.7-3.6c-0.1-0.2-0.1-0.6,0-0.7c2.7-3.4,0.8-7.6,2.1-11.1c0.7-2,1.3-3.7,1.2-5.7c3.2,0.4,6.2-1,9.3-1.4
		c6.9-0.8,13.5-2.8,20.2-4c5.3-1,10.5-1.9,15.8-2.6c-0.3,1.2,0.9,1.7,1.3,2.7c0.3-0.6,0.6-1.3,0.9-1.9c0.7,0.5,0.5,1.4,0.9,1.9
		c3.6-0.8,6.8,0.9,10.1,1.3c2.3,0.3,3.9,2.1,6.3,2.4c1.3,0.2,1.2,1.6,0.5,2.7c3.9,2.7,7.2,6.4,12.3,6.5c0.6,1.9,0.9,3.8,2.1,5.3
		c1,1.2,1.5,2.5,0.9,4.2c-0.2,0.5-0.8,1.1-0.3,1.9c1.7,0,3.6-0.3,5.9,0.2c-1.7,1.3-3.2,0-5.1,0.6c2,0.6,2.8,2.3,4.8,2.3
		c1.8,0,2.6,2,1.9,3.9c-0.7,2.4-0.7,4.8-0.6,7.3c0,3.9,0.4,7.8-0.1,11.6c-0.8,6.1,0.4,12.3-0.6,18.4c-0.3,2-0.1,4-0.4,6.1
		C192.3,128.9,192.4,131.6,192.8,134.1z M176.5,65.6c1.5,1.1,2.8,1.3,4.1-0.2C178.9,63.1,177.7,64.8,176.5,65.6z M178.9,72
		c1.7-0.5,2.8-1.3,4-2.2c-0.3-0.5-0.5-0.9-0.8-1.4C181.6,70,179.7,70.3,178.9,72z M159.4,54.1c-0.7-0.3-0.8-1.4-1.7-0.9
		c-0.6,0.3-0.8,0.9-0.4,1.6C158,54.9,158.6,55.1,159.4,54.1z"/>
	<path class="st1" d="M178.6,170.5c-0.9,2.6-3.2,3.4-4.4,5.4c-2.5,4.1-6.1,7.8-7.6,12.3c-0.8,2.5-2.5,4.6-3,7.1
		c-0.1,0.7-0.4,1.9-1.7,1.3c-0.5-0.6,0.6-1,0.1-1.5c-1,0.1-0.7,1.4-1.6,1.5c-0.3-0.8,1.1-1.8-0.4-2.5c-0.4,0.1-0.2,0.6-0.3,0.9
		c-0.5,0.8-0.8,2.3-1.9,2.1c-1.6-0.2-0.2-1.5-0.4-2.3c-0.1-0.3-0.3-0.5-0.6-1c-0.7,2.5-3.1,3.5-4.2,5.5c-1.2-0.8-1.8,0.5-2.7,0.6
		c-1.1,0.2-0.9,1.1-1.4,1.6c-0.7-0.2-1.3-0.7-2.2-0.3c-0.4,0.5,0.7,1.2-0.4,1.9c-2.4-1.8-4-0.2-5.3,1.8c-1.5,2.3-3.9,1-5.9,1.6
		c0.2,2.8-2.6,3.6-3.7,5.9c0.1,0.4,0.3,1,0.6,1.7c-2.2,1.1-4.4,0-6.5-0.1c0.3,1.8-5,5.3-9.1,6.1c0.3,0.6,0.5,1.3,0.9,2.2
		c-1.6-0.1-3.3,0.4-4.2,1.3c-1.1,1.1-0.1,3.2-1,5.2c-0.8-4.9-1.4-9.3-0.5-13.7c0.1-0.6,0-1.3,0-1.9c-0.3-8.8,0.7-17.6,0.5-26.4
		c-0.1-1.7,0.6-2.2,2.1-1.3c1.2,0.8,2.7,0.8,3.5,0c1.5-1.3,3.6-1.4,4.8-3.2c1-1.5,3-0.3,4.4-1.3c-1.3-0.5-1.1-1.5-0.8-2.7
		c1.5-0.5,2.7,0.9,4.4,0.4c0-0.9,0.9-1.7,2-2.3c-0.5-1.1-1.7-0.2-2.3-0.8c1.7-2.1,2.2-2.2,3.9-1c0.5-0.3,0.2-1.2,1-1.4
		c0.4,0.3,0.9,0.7,1.4,1.2c2-1.7,1.6-6.6,6.2-5.1c0.6,1.1-0.7,3,1.3,3.6c1.2-2.2,1.7-4.4,0.2-6.8c3.1,0.4,3.1,0.4,2,2.9
		c-0.1,0.2-0.4,0.5-0.3,0.6c0.4,0.9,0.4,1.9,0.5,3.1c2-1.1,3.7-2.3,5.8-2c0.7,0.7,0,1.2,0.1,2c2.8-0.5,2.6,2.8,4.6,3.4
		c1.1-1.6,2.2-1.6,4.3,0.4c0.8,0.8,0.8,0.8,1.8-0.1c-0.1-0.8-1.5-0.1-1.4-1.2c0.1-0.3,0.1-0.6,0.5-0.7c0.8-0.1,1,0.5,1.4,1
		c1.4,1.4,1.6,1.7,1.5,3.2c1.3-0.8,1.6-2.3,2.1-3.3c1.5-3.2,4.6-3,7.2-3.5C175.5,171.3,177,171.2,178.6,170.5z"/>
	<path class="st1" d="M68.2,166.7c4.5-2.1,6.9-6,9-10.1c3.2-5.9,6.5-11.6,10.6-16.9c1.1-1.4,2.4-2.7,4-3.6c-0.5-1.6-0.1-3.2-0.3-4.7
		c-0.2-2,1.5-2.5,2.5-2.2c3.8,0.8,7.9,0.1,11.4,2c0.1,0.1,0.3,0.2,0.4,0.1c3.5-1.6,5.7,1.5,8.5,2.4c0.6,0.2,0.6,0.7,0.8,1.1
		c0.9,1.6,1.4,3.8,4.1,2.9c0-1.1,0.3-2.3,1.1-3.3c0.7,0.1,1.3,0.3,1.9,0.4c1.6,2.2-2.8,1.9-1.5,3.9c1.9,0.1,2.4,0.9,1.7,3
		c-1.4-0.5-1.8-3.4-3.6-2c-1.3,1-2.9,1.8-3.6,3.5c-0.4-0.4-0.8-0.7-1.4-1.3c1.1,3.9,0.4,7.6,0,11.1c0.8,0.9,0.3-1,1.1-0.2
		c3.1,3,7.3,4,10.9,6.3c0.6,0.4,1.2,0.7,1,1.6c-0.1,0.8-0.5,1-1.3,0.8c-0.3,0.7,0.6,1.1,0.1,2c-1-1.9-2.7,2.7-3.8-0.5
		c-0.1-0.3-1-0.6-1.5-0.6c-2.1,0.2-4.3,0-6.4,0.7c-0.1,0-0.1,0.4-0.5,0.6c0-1.8,0-3.5,0-5.3c-1.3,7.5-2.6,15.1,5.3,20.6
		c-5.9,1.4-9.3-2.1-13.3-4.4c-0.1,0.7-0.7,1-1.3,1.3c-0.9,0.4-0.3,1.3-0.5,2c-3.5-0.9-6.1-2.5-5.3-6.7c-2.3-1.4-4.5-0.6-6.6,0.5
		c-1.2,0.6-1.8,2.2-2.1,3.2c-0.6,2.2-2.2,2.4-3.8,2.9c-0.5-1.4,1.2-1.6,1.3-3c-2.9-0.1-3.3-2.9-3.5-4.7c-0.2-1.7-0.5-4.3,1.9-5.7
		c-2.1,0.4-3.4,2.1-5.2,3s-3.5,2.3-5.6,2.5s-4,1.3-6.2,1C68.6,169.5,68.4,168.1,68.2,166.7z"/>
	<path class="st1" d="M144.9,127.7c0.4,0.6,0.8,1.1,1.4,1.9c-2.4,0.6-4.5-0.5-6.7-0.4c-1.9,0.1-3.7-0.7-5.6-1s-3.7-1.8-5.5-2.8
		c-0.6-0.3-1.2-0.9-1.9-0.9c-3.2-0.3-4.5-3.1-5.9-5.2c-1.4-2-0.8-4.8-0.4-7.2c0.1-0.7,0.4-1-0.5-1.6c-1.4-0.9-1.6-2.8-2.4-4.2
		c-0.4-0.7,0-1.6,1-1.8c2.6-0.5,4.1-2.3,5.3-4.6c1.6,0.7,3.2,0.6,4.6-0.2c2.3-1.3,5,0.2,7.3-1.4c0.3-0.2,0.9-0.2,1.2,0
		c3.6,2.5,7.9,2.3,11.9,3.6c4.1,1.4,8.6,2.1,10.4,6.8c-2.3,0.7-2.3,0.7-4.6-0.4c-2.1-1-5.4,0.6-5.8,2.9c-3.3-0.7-6.6-1.4-9.9-2.1
		c-0.2,1,0.5,1,0.8,1.4c-0.4,0.1-0.8,0.2-1.7,0.4c3.5,1.4,7,1.9,10.1,3.6c-0.7-0.8-1.3-1.6-2.2-2.7c2.8-0.1,5.2,0.5,6.8,2.2
		c1.4,1.5,4.1,2.5,3.6,5.4c0.4,0.3,0.5-0.8,1-0.2c0.4,0.4,0.5,1.1,0.2,1.3c-2.4,1.2-1.8,3.2-1.3,5.2c-1.9,0.7-3-0.7-4.3-1.4
		c-3.2-1.8-9.5-2-12.4-0.1C140.8,126.3,143.3,126.4,144.9,127.7L144.9,127.7z M148.2,118.9c-1.8-4-6.2-6.2-10.8-5.3
		C141.9,114.2,145,116.8,148.2,118.9z"/>
	<path class="st1" d="M104.2,244.6c0.7-0.8,1.9-1.3,2.1-2.6c1.3,1.3,1.6,8.7,0.6,11.9c-2-0.6-4.1-1.2-6.1-2
		c-1.2-0.5-1.9-0.2-2.7,0.6c-1.4,1.4-1.5,3.1-1,4.8c0.3,1.1,1.1,1.9,2.3,2c1.5,0.2,1.5,0.2,1.8,2.1c1.8-1.5,2.3,0.3,3.3,1.1
		c1.5,1.3,3.4,1.9,5.4,2c-0.1,1.3,1.8,1.4,1.7,2.8c0,0.7,0.2,1.3,0.3,2.1c-1.7-0.5-2,0.9-2.5,1.8c-1.6-1.4,0.4-4.3-2.7-5.6
		c1,3.8-2.7,5.8-2.4,9.2c-9.8,0-19.5,0-29.2,0c-0.7-0.4,0.1-1.5-0.8-1.8c0.6-2.5,1.5-5,2.1-7.5c0.6-2.7,2.3-4.5,4.2-6.1
		c3.8-3.1,6.5-6.9,8.4-11.3c1.1-2.6,1.8-5.4,3.8-7.6c1,0.5,1-0.3,1-0.9c0.1-1,0-2.1,0-3.1c2.2-0.3,2.1,1.5,2.3,2.7
		c1.3,0,0.7-1.3,1.6-1.8c1.2,0.8,2.4,1.8,4,1.9c-0.1,1.4-1.2,0.9-1.9,1.3c1.4,0.8,2.7,1.6,0.1,3.5C102,243.9,103.4,243,104.2,244.6
		c-1-0.4-2.2-0.2-2.8,0.6c-0.8,1.3-1.6,1.5-2.9,0.8c-0.4-0.2-0.7,0.2-1.2,1.1c1.3-1,1.7,0.8,2.8,0.1
		C101.5,246.3,102.8,245.4,104.2,244.6z M85.7,256.9c-1.8,2.1-0.1,11.5,4.2,14.9C89,266.7,86.1,262.2,85.7,256.9z M95.2,241.9
		c-0.3,1.2-0.1,1.9,1,2c0.4,0,1,0.2,1.1-0.5C97.5,241.7,95.3,243.2,95.2,241.9z"/>
	<path class="st1" d="M90.6,186.2c0.9,1.6,2.4,0.8,3.7,0.9c0.9,0.1,1.9,0,2.8,0c0.2-2,0.8-2.9,3.1-3c1.6-0.1,3.2-1.4,5-2.2
		c0.6,0.2,1,0.7,1.3,1.3c-0.1,1-1.1,0.9-1.8,1.2c0.8,0.9,1.6-0.1,2.3,0.5c0.2-1.3-0.5-3,1.8-3c0.2,0.7,0.5,1.5-0.1,2.2
		c-0.4,0.4-0.6-0.3-0.9-0.5c-0.3,0.7-0.2,1.4-0.1,2.1c0.7,0.2,0.3-1,1.3-0.4c0.3,0.6,0,1.6,0,2.5c0,3.7,0.1,7.3,0,11
		c-0.2,7.8-0.8,15.6-1.1,23.4c0,1.7,0.1,3.4,0.1,5c0,3.3-1.3,4.9-4.3,3.8c-2.6-1-3,0.3-3.7,1.9c-1.6-1.2-1-2.5-0.5-3.9
		c-1.3-0.3-2,0.2-2.2,1.4c-0.9,0-1.1-0.6-1.6-1.1c0.4-0.2,0.9-0.3,1.2-0.5c0.1-0.8-0.7-1-0.9-1.6c0.7-3.4,0.5-6.8-0.9-10.1
		c0.4-2,0.7-4,1.1-6.2c-0.9-0.5-1.7-1.3-2.1-2.5c-1.8-6.5-1.5-13.4-3.5-19.8C90.2,187.9,90.1,187,90.6,186.2z"/>
	<path class="st1" d="M86.9,112.3c0.9,0.4,0.1,1.4,0.6,1.9c2.1-1.2,0.8-3.2,1.1-5c1.9,1.6,2.5-0.4,3.5-1.2c1.3-0.2,2.6-0.4,3.7-0.6
		c-0.6-1.3-1.7-1.8-2.8-2.4c0.4-1.3,1.4-2.2,2.3-3.2c1.4-1.5,2.7-3.1,2.9-5.2c4.3,0.4,8.4,1.3,11.1,5.1c0.8,1.1,2.5,1.3,2.5,3.3
		c0.1,2.9-0.9,5-3.4,6.5c-3,1.7-5,4.5-7.5,6.8c-1.3,1.2-2.5,2.5-3.4,4.3c-1.1,2.3-3.8,1.7-5.9,2.1c-1.5,0.3-3.2,0.1-5,0.1
		c0.8-1.4,0.3-2.9,0.9-4.2c0.3-0.8,0.1-1.9-1.3-2c0-0.3,0-0.7,0-1C86.6,115.7,87.1,114,86.9,112.3z"/>
	<path class="st1" d="M151.7,49.2c-5.3,0.7-10.6,1.7-15.8,2.6c-6.8,1.2-13.4,3.2-20.2,4c-3.1,0.4-6,1.9-9.3,1.4
		c0.4-0.6,0.9-1.2,1.3-1.9c0.7-1.4,1.7-1.5,3-0.9c5.7-1,11.3-2.1,17-3c5.1-0.8,9.9-2.8,15.1-3.2c2.2-0.7,4.3-1.7,6.8-1.5
		c0.7,0.1,1.3-0.4,1.9-0.9c0.5,0.8,1.4,0.1,2,0.3c2.4,0.5,1,1.8,1.1,3c-1.1-0.5-1.2-1.7-2.3-1.7C152,47.9,151.8,48.6,151.7,49.2z"/>
	<path class="st1" d="M93,240.6c-2,2.2-2.7,5-3.8,7.6c-1.9,4.4-4.7,8.2-8.4,11.3c-2,1.6-3.6,3.3-4.2,6.1c-0.6,2.5-1.5,5-2.1,7.5
		c0,0.5-0.1,1.1-0.1,1.6c-1.1,0.4-2.2,0.2-3.3,0.1c1.5-2.8,2-5.8,3-8.8c1.1-3.4,1.8-7.2,5-9.4c4-2.8,6.2-6.9,8.5-11
		c1.7-3.2,3.1-6.6,4.6-9.9C92.9,237.3,92.6,239,93,240.6z"/>
	<path class="st1" d="M192.8,134.1c-0.4-2.6-0.5-5.2-0.1-7.7c0.3-2.1,0.1-4.1,0.4-6.1c1-6.1-0.2-12.3,0.6-18.4
		c0.5-3.8,0.1-7.7,0.1-11.6c0-2.5-0.1-4.9,0.6-7.3c0.7,1.2,1.9,2.3,1.9,3.8c-0.8,1.5-0.1,3-0.2,4.4c-0.6,7.4-0.5,14.9-0.3,22.3
		c-0.1,0.7-0.3,1.4-0.3,2.1c0.1,3.1-0.9,6.2-0.2,9.4C196,128.6,194.1,131.3,192.8,134.1z"/>
	<path class="st1" d="M92.2,235.8c-1.5,3.3-2.8,6.7-4.6,9.9c-2.2,4.1-4.4,8.3-8.5,11c-3.3,2.2-3.9,6-5,9.4c-1,2.9-1.5,6-3,8.8
		c-0.6,0-1.3,0-1.9,0c1.9-3.8,3.5-7.6,4.3-11.8c0.6-3.4,2.2-6.2,5-8.3c3.2-2.5,5.2-5.8,6.9-9.4c2.3-1.3,2.8-3.6,3.4-6
		c0.5-2.3,1.4-4.4,2.8-6.5C92.5,233.8,91.9,234.9,92.2,235.8z"/>
	<path class="st1" d="M85.4,245.3c-1.7,3.6-3.7,7-6.9,9.4c-2.8,2.1-4.4,4.9-5,8.3c-0.7,4.2-2.4,8-4.3,11.8c-0.8,0-1.6,0-2.5,0
		c2.1-5.8,4.2-11.4,6.3-17.1c1-1.3,1.9-2.6,2.9-3.9c1.2,0.2,1.2-1,1.8-1.6C80.2,250,82.6,247.4,85.4,245.3z"/>
	<path class="st1" d="M204.8,274.9c-2.3-2.6-4.6-5.2-6.7-7.9c-3.6-4.4-5.3-9.5-6.1-15c1.3,0.5,2.5,1.2,3.3,2.4
		c0.9,5.2,3.3,9.7,6.7,13.7c2.5,3,6.1,4.5,9.1,6.8C208.9,274.9,206.8,274.9,204.8,274.9z"/>
	<path class="st1" d="M190.4,153c0.5-2.2-0.4-4.2-1-6.2c-0.4-1.7-1.8-1.5-2.7-0.7c-2.9,2.4-4,2.6-7.2,0.6c0.4-0.8,0.8-1.5,1.9-1.4
		c0.8,0.2-0.6,1.3,0.8,1.3c-0.1-3.9,3.4-2.2,5.2-3.2c2.2-1.2,3.9-0.1,5.3,1.5c1.6,1.8,1.2,3.6,0.1,5.4
		C192.2,151.1,192.8,153.3,190.4,153z"/>
	<path class="st1" d="M90.6,186.2c-0.5,0.8-0.4,1.7-0.1,2.5c2.1,6.4,1.8,13.3,3.5,19.8c-1,0.9-1.7,0.4-1.7-0.7
		c0.2-2.8-1.3-5.1-1.8-7.7c-0.4-2.2-1.5-4.2-2.2-6.3c0.2-2.6-1-4.8-2-7.1C87.7,186.3,89,184.9,90.6,186.2z"/>
	<path class="st1" d="M142.7,48.2c-5.2,0.3-10,2.4-15.1,3.2c-5.7,0.9-11.3,2-17,3c0.5-0.5,0.9-1,1.4-1.4c4.4-0.9,8.8-1.9,13.2-2.8
		c0.9-0.2,1.9-0.3,2.6-1c1,0,2,0.1,2.9-0.6c2-0.3,3.7-1.6,5.7-1.4c2.1,0.5,4.1-0.9,6.2-0.4C142.7,47.3,142.7,47.7,142.7,48.2z"/>
	<path class="st1" d="M211,274.9c-3-2.4-6.6-3.8-9.1-6.8c-3.3-4-5.7-8.5-6.7-13.7c0.6,0.5,1.3,1,1.9,1.4c0.3,2.6,1.6,4.8,2.9,7
		c4.2,7,10.3,11.1,18.6,11.2c0.2,0.2,0.5,0.4,1.1,0.9C216.6,274.9,213.8,274.9,211,274.9z"/>
	<path class="st1" d="M180.5,148.2c-1.3,0.8-1.7,1.5-2,2.4c1.7-0.1,1.8-1.9,3-2.3c3.8,4.2,3.8,4.2,3.7,7.9c-1.7-0.2-3.3-0.5-5-0.4
		c-0.8,0-1.3-0.2-1.8-0.6c-0.6-0.5-0.7-6.1-0.3-6.8C178.6,147.2,179.2,148.1,180.5,148.2z"/>
	<path class="st1" d="M98.3,96.5c-0.3,2.1-1.6,3.7-2.9,5.2c-0.9,1-1.9,1.9-2.3,3.2c-0.9,0.4-1.5-0.3-2.3-0.7
		c-0.2,1.1-0.2,1.9,0.3,2.7c-1.9-0.1-0.4-1.7-1.2-2.4c-0.4,0.7-0.2,2-1.6,2.1c0-1,0-2,0-3c3-1.8,5.2-4.4,7.1-7.2
		C96.4,96.4,97.4,96.5,98.3,96.5z"/>
	<path class="st1" d="M215.3,271.6c0.5,0.5,1,1,1.4,1.4c-3.4-0.1-6.4-1.3-9-3.3c-4.2-3.2-7.4-7.1-8.7-12.3c1.1,0.5,1.7,1.4,2.4,2.3
		c0.1,0.3,0.2,0.6,0.3,0.9C204.6,266.3,209.4,269.7,215.3,271.6z"/>
	<path class="st1" d="M195.2,125.1c-0.7-3.1,0.3-6.3,0.2-9.4c0-0.7,0.2-1.4,0.3-2.1c0.6-0.7,0.8-1.6,0.7-2.4
		c-0.5-3.7,0.7-7.4-0.2-11c0.5,0.2,0.9,0.4,1.4,0.6c-0.3,8.1-0.6,16.2-0.9,24.3C196.2,127.1,195.7,124.5,195.2,125.1z"/>
	<path class="st1" d="M196.2,100.2c1,3.6-0.2,7.3,0.2,11c0.1,0.9-0.1,1.7-0.7,2.4c-0.2-7.5-0.3-14.9,0.3-22.3c0.1-1.5-0.6-3,0.2-4.4
		c0.5,1.4,1,2.9,1.4,4.3c0,2.7,0,5.5,0,8.2C197.6,100.4,196,98.8,196.2,100.2z"/>
	<path class="st1" d="M199,257.4c1.4,5.2,4.5,9.2,8.7,12.3c2.6,2,5.6,3.2,9,3.3c0.7,0.1,1.4,0.4,1.9,1c-8.4-0.1-14.4-4.1-18.6-11.2
		c-1.3-2.2-2.5-4.4-2.9-7C197.8,256.4,198.4,256.9,199,257.4z"/>
	<path class="st1" d="M196.7,125.1c0.3-8.1,0.6-16.2,0.9-24.3c0.5,0.9,1,1.8,1.5,2.7c-0.8,5.7-0.5,11.5-1,17.3
		C197.7,122.3,197.8,123.9,196.7,125.1z"/>
	<path class="st1" d="M95,217.2c1.3,3.3,1.5,6.6,0.9,10.1c-1.5-1.8-3.9-3-4.5-5.8c0.6,0.4,1,0.6,1.4,0.8c0.9-1.2-1.1-1.7-0.6-2.8
		C93.1,218.8,94.7,218.7,95,217.2z"/>
	<path class="st1" d="M130.8,48.6c-0.9,0.6-1.9,0.5-2.9,0.6c-0.9-0.6-1.7-0.1-2.5,0.1c-3.8,0.6-7.6,1.2-11.4,1.8
		c0.2-1.2,0.6-1.7,2.1-1.6c1.3,0.1,2.5-1.3,4.1-0.8c1.9-0.5,3.9-0.2,5.8-0.9c0.9,0,1.8,0,2.7,0C129.6,47.7,130.5,47.4,130.8,48.6z"
		/>
	<path class="st1" d="M130.8,48.6c-0.3-1.2-1.2-1-2-0.9c-0.9,0-1.8,0-2.7,0c0.6-0.4,1.3-0.5,2-0.5c0.5,0.1,0.9-0.2,1.3-0.5
		c4.3-0.5,8.3-2.1,12.5-2.9c0.1,0.2,0.3,0.3,0.4,0.5c-1.8,1.3-4.3,1-5.8,2.9C134.4,47.1,132.7,48.4,130.8,48.6z"/>
	<path class="st1" d="M141.8,43.9c-4.2,0.8-8.3,2.3-12.5,2.9c3.5-2.3,7.1-4.1,11.6-4.4C141.4,42.5,141.3,43.4,141.8,43.9z"/>
	<path class="st1" d="M215.3,271.6c-5.9-2-10.8-5.3-13.6-11.1c-0.1-0.3-0.2-0.6-0.3-0.9c1.1,0.6,2.2,1.3,2.9,2.4
		c1.7,3.3,4.7,5.3,7.7,7.2C213.2,270,214.6,270.3,215.3,271.6z"/>
	<path class="st1" d="M198.1,120.8c0.4-5.8,0.1-11.6,1-17.3c0.3,0.3,0.6,0.6,1,1c-0.6,2.7-0.4,5.5-0.5,8.2
		C201,115.8,199.3,118.2,198.1,120.8z"/>
	<path class="st1" d="M95.5,96.4c-2,2.8-4.1,5.4-7.1,7.2c0.4-3.1,2.3-5.2,4.7-7.1C93.7,96,94.6,95.4,95.5,96.4z"/>
	<path class="st1" d="M114,51.1c3.8-0.6,7.6-1.2,11.4-1.8c0.8-0.1,1.6-0.6,2.5-0.1c-0.7,0.7-1.7,0.8-2.6,1
		c-4.4,0.9-8.8,1.9-13.2,2.8C112.3,51.9,112.9,51.2,114,51.1z"/>
	<path class="st1" d="M85.4,190.1c-2.9-3.9-5.6-7.8-7.1-12.6c1.3,1.9,1.9,4.2,3.7,5.8c0.9,0.8,1.9,1.4,2.4,2.5
		C84.3,187.3,85.6,188.5,85.4,190.1z"/>
	<path class="st1" d="M142.7,48.2c0-0.5,0-1,0-1.4c0.3-0.7,0.8-0.9,1.5-1c1.9,0.2,3.6-0.5,5.4-0.9c0.8-0.2,1.7-0.5,1.7,0.9
		c-0.5,0.5-1.1,0.9-1.9,0.9C147,46.5,144.9,47.5,142.7,48.2z"/>
	<path class="st1" d="M85.4,190.1c0.2-1.5-1.1-2.7-0.9-4.3c1-0.3,1.2,0.7,1.9,1c1,2.3,2.2,4.5,2,7.1
		C87.4,192.6,86.4,191.3,85.4,190.1z"/>
	<path class="st1" d="M197.6,99.3c0-2.7,0-5.5,0-8.2c1.1,0.6,2.2,1.2,2.8,2.5c-0.7,0.7-1.4,0.3-2.1,0.2c-0.6,1.7,0.4,2.8,1.3,4
		c-0.2,0.7-0.3,1.3-0.5,2C198.6,99.6,198.2,99.2,197.6,99.3z"/>
	<path class="st1" d="M91.1,106.9c-0.5-0.8-0.6-1.6-0.3-2.7c0.7,0.4,1.4,1.1,2.3,0.7c1.1,0.6,2.2,1.1,2.8,2.4
		c-1.1,0.2-2.4,0.4-3.7,0.6C91.8,107.6,91.5,107.2,91.1,106.9z"/>
	<path class="st1" d="M199.5,112.7c0.1-2.7-0.1-5.5,0.5-8.2C202.6,107.4,201.7,110.1,199.5,112.7z"/>
	<path class="st1" d="M128,47.2c-0.7,0-1.4,0.1-2,0.5c-1.9,0.8-3.9,0.4-5.8,0.9c0.6-1.9,1.8-2.4,3.4-1.1
		C127,44.9,127.1,44.9,128,47.2z"/>
	<path class="st1" d="M68.2,166.7c0.2,1.4,0.3,2.8,0.5,4.3c-1.2,1-2,0.2-2.9-0.5c0-0.8,0-1.7,0-2.5
		C66.6,167.6,67.4,167.1,68.2,166.7z"/>
	<path class="st1" d="M144.2,45.8c-0.7,0.1-1.2,0.3-1.5,1c-2.1-0.5-4.1,1-6.2,0.4c1.5-1.9,4-1.6,5.8-2.9
		C142.9,44.8,143.5,45.3,144.2,45.8z"/>
	<path class="st1" d="M212,269.2c-3-1.9-6-3.9-7.7-7.2C207.4,263.9,209.6,266.7,212,269.2z"/>
	<path class="st1" d="M86.3,117.4c0,0.3,0,0.7,0,1c0,2.2-0.7,4-2.1,6.2c-0.7-3.1,1.2-5,1.6-7.2C86.1,117.5,86.2,117.4,86.3,117.4z"
		/>
	<path class="st1" d="M75.9,253.9c-1,1.3-1.9,2.6-2.9,3.9c-0.5-0.1-1.1-0.2-0.7-0.8c1-1.6,2.1-3,3.4-4.9
		C75.8,253,75.8,253.5,75.9,253.9z"/>
	<path class="st1" d="M199,99.8c0.2-0.7,0.3-1.3,0.5-2c2.3,1.2,0.3,3.6,1.7,5.3C199,102.7,199.9,100.7,199,99.8z"/>
	<path class="st1" d="M65.8,168c0,0.8,0,1.7,0,2.5c-1.3,0.1-2-0.6-2.5-1.7C64.1,168.4,64.9,168,65.8,168z"/>
	<path class="st1" d="M86.3,117.4c-0.1,0-0.3,0.1-0.4,0.1c0.1-1.4,0.3-2.8,0.4-4.2c0.1-1.4,0-2.8,0.5-4.3c0,1.1,0,2.2,0,3.3
		C87.1,114,86.6,115.7,86.3,117.4z"/>
	<path class="st1" d="M143.2,165.8c-0.7,0.5-1.4,0.3-2.1,0.2c0.1-0.8,0.3-1.5,0.4-2.2C143.1,163.8,143,164.9,143.2,165.8z"/>
	<path class="st1" d="M144.9,127.8c1.3-0.8,2.8-1,4.6-0.6C147.9,128.3,146.3,127.9,144.9,127.8C144.9,127.7,144.9,127.8,144.9,127.8
		z"/>
	<path class="st1" d="M176.5,65.6c1.3-0.9,2.5-2.5,4.1-0.2C179.2,66.9,177.9,66.7,176.5,65.6z"/>
	<path class="st1" d="M178.9,72c0.9-1.6,2.7-1.9,3.2-3.6c0.3,0.6,0.5,1,0.8,1.4C181.7,70.6,180.6,71.5,178.9,72z"/>
	<path class="st1" d="M159.4,54.1c-0.7,1-1.4,0.9-2.1,0.7c-0.4-0.7-0.2-1.3,0.4-1.6C158.6,52.7,158.7,53.8,159.4,54.1z"/>
	<path class="st1" d="M148.2,118.9c-3.3-2.1-6.3-4.6-10.8-5.3C142,112.7,146.4,114.9,148.2,118.9z"/>
	<path class="st1" d="M85.7,256.9c0.4,5.3,3.3,9.9,4.2,14.9C85.6,268.4,83.9,259,85.7,256.9z"/>
	<path class="st1" d="M104.2,244.6c-1.4,0.9-2.7,1.7-4.1,2.6c-1.1,0.7-1.5-1.1-2.8-0.1c0.5-0.9,0.8-1.3,1.2-1.1
		c1.3,0.7,2.1,0.5,2.9-0.8C101.9,244.3,103.2,244.2,104.2,244.6L104.2,244.6z"/>
	<path class="st1" d="M95.2,241.9c0.1,1.3,2.3-0.2,2.1,1.5c-0.1,0.7-0.7,0.5-1.1,0.5C95,243.8,94.8,243.1,95.2,241.9z"/>
</g>
</svg>
